<svg width="336" height="341" viewBox="0 0 336 341" fill="none" xmlns="http://www.w3.org/2000/svg">
<path d="M127 340.22C70.1651 236.779 81.4747 130.368 126.873 47C137.319 53.0932 257.508 122.266 289.529 140.728C269.553 181.129 273.428 215.842 288.946 246.72C258.636 264.22 127 340.22 127 340.22Z" fill="#2C8488"/>
<path d="M122.952 189.528C122.952 189.933 122.802 190.285 122.504 190.584C122.226 190.861 121.885 191 121.48 191H112.584C111.816 191 111.101 190.808 110.44 190.424C109.8 190.04 109.288 189.528 108.904 188.888C108.52 188.248 108.328 187.544 108.328 186.776V183.864C108.328 182.989 108.584 182.179 109.096 181.432C109.608 180.685 110.29 180.163 111.144 179.864L118.824 176.984C119.037 176.92 119.144 176.76 119.144 176.504V173.624C119.144 173.325 119.005 173.176 118.728 173.176H112.584C112.477 173.176 112.37 173.219 112.264 173.304C112.178 173.389 112.136 173.496 112.136 173.624V174.488C112.136 174.893 111.986 175.235 111.688 175.512C111.41 175.789 111.069 175.928 110.664 175.928H109.8C109.394 175.928 109.042 175.789 108.744 175.512C108.466 175.235 108.328 174.893 108.328 174.488V173.624C108.328 172.835 108.52 172.12 108.904 171.48C109.288 170.84 109.8 170.328 110.44 169.944C111.101 169.56 111.816 169.368 112.584 169.368H118.728C119.496 169.368 120.2 169.56 120.84 169.944C121.48 170.328 121.992 170.84 122.376 171.48C122.76 172.12 122.952 172.835 122.952 173.624V176.504C122.952 177.4 122.696 178.221 122.184 178.968C121.672 179.715 121 180.237 120.168 180.536L112.456 183.416C112.242 183.48 112.136 183.629 112.136 183.864V186.776C112.136 186.883 112.178 186.989 112.264 187.096C112.37 187.181 112.477 187.224 112.584 187.224H121.48C121.885 187.224 122.226 187.363 122.504 187.64C122.802 187.917 122.952 188.269 122.952 188.696V189.528ZM140.202 186.776C140.202 187.544 140.01 188.248 139.626 188.888C139.242 189.528 138.73 190.04 138.09 190.424C137.45 190.808 136.746 191 135.978 191H129.834C129.151 191 128.5 190.84 127.882 190.52L127.85 190.488C127.146 190.125 126.591 189.613 126.186 188.952C125.78 188.269 125.578 187.544 125.578 186.776V173.624C125.578 172.835 125.77 172.12 126.154 171.48C126.538 170.84 127.05 170.328 127.69 169.944C128.351 169.56 129.066 169.368 129.834 169.368H135.978C136.17 169.368 136.426 169.4 136.746 169.464C137.087 169.507 137.439 169.624 137.802 169.816H137.834C138.559 170.179 139.135 170.701 139.562 171.384C139.988 172.045 140.202 172.792 140.202 173.624V186.776ZM134.25 173.56C134.292 173.453 134.292 173.368 134.25 173.304C134.207 173.219 134.132 173.176 134.026 173.176H129.834C129.727 173.176 129.62 173.219 129.514 173.304C129.428 173.389 129.386 173.496 129.386 173.624V181.944C129.386 182.029 129.428 182.083 129.514 182.104C129.599 182.125 129.663 182.093 129.706 182.008L134.25 173.56ZM136.394 186.776V178.232C136.394 178.125 136.351 178.061 136.266 178.04C136.202 178.019 136.138 178.051 136.074 178.136L131.434 186.84C131.412 186.925 131.423 187.011 131.466 187.096C131.508 187.181 131.572 187.224 131.658 187.224H135.978C136.084 187.224 136.18 187.181 136.266 187.096C136.351 186.989 136.394 186.883 136.394 186.776ZM157.452 186.776C157.452 187.544 157.26 188.248 156.876 188.888C156.492 189.528 155.98 190.04 155.34 190.424C154.7 190.808 153.996 191 153.228 191H147.084C146.401 191 145.75 190.84 145.132 190.52L145.1 190.488C144.396 190.125 143.841 189.613 143.436 188.952C143.03 188.269 142.828 187.544 142.828 186.776V173.624C142.828 172.835 143.02 172.12 143.404 171.48C143.788 170.84 144.3 170.328 144.94 169.944C145.601 169.56 146.316 169.368 147.084 169.368H153.228C153.42 169.368 153.676 169.4 153.996 169.464C154.337 169.507 154.689 169.624 155.052 169.816H155.084C155.809 170.179 156.385 170.701 156.812 171.384C157.238 172.045 157.452 172.792 157.452 173.624V186.776ZM151.5 173.56C151.542 173.453 151.542 173.368 151.5 173.304C151.457 173.219 151.382 173.176 151.276 173.176H147.084C146.977 173.176 146.87 173.219 146.764 173.304C146.678 173.389 146.636 173.496 146.636 173.624V181.944C146.636 182.029 146.678 182.083 146.764 182.104C146.849 182.125 146.913 182.093 146.956 182.008L151.5 173.56ZM153.644 186.776V178.232C153.644 178.125 153.601 178.061 153.516 178.04C153.452 178.019 153.388 178.051 153.324 178.136L148.684 186.84C148.662 186.925 148.673 187.011 148.716 187.096C148.758 187.181 148.822 187.224 148.908 187.224H153.228C153.334 187.224 153.43 187.181 153.516 187.096C153.601 186.989 153.644 186.883 153.644 186.776ZM174.702 186.776C174.702 187.544 174.51 188.248 174.126 188.888C173.742 189.528 173.23 190.04 172.59 190.424C171.95 190.808 171.246 191 170.478 191H164.334C163.651 191 163 190.84 162.382 190.52L162.35 190.488C161.646 190.125 161.091 189.613 160.686 188.952C160.28 188.269 160.078 187.544 160.078 186.776V173.624C160.078 172.835 160.27 172.12 160.654 171.48C161.038 170.84 161.55 170.328 162.19 169.944C162.851 169.56 163.566 169.368 164.334 169.368H170.478C170.67 169.368 170.926 169.4 171.246 169.464C171.587 169.507 171.939 169.624 172.302 169.816H172.334C173.059 170.179 173.635 170.701 174.062 171.384C174.488 172.045 174.702 172.792 174.702 173.624V186.776ZM168.75 173.56C168.792 173.453 168.792 173.368 168.75 173.304C168.707 173.219 168.632 173.176 168.526 173.176H164.334C164.227 173.176 164.12 173.219 164.014 173.304C163.928 173.389 163.886 173.496 163.886 173.624V181.944C163.886 182.029 163.928 182.083 164.014 182.104C164.099 182.125 164.163 182.093 164.206 182.008L168.75 173.56ZM170.894 186.776V178.232C170.894 178.125 170.851 178.061 170.766 178.04C170.702 178.019 170.638 178.051 170.574 178.136L165.934 186.84C165.912 186.925 165.923 187.011 165.966 187.096C166.008 187.181 166.072 187.224 166.158 187.224H170.478C170.584 187.224 170.68 187.181 170.766 187.096C170.851 186.989 170.894 186.883 170.894 186.776ZM187.504 183.16C187.504 183.565 187.365 183.917 187.088 184.216C186.81 184.493 186.469 184.632 186.064 184.632H178.768C178.362 184.632 178.021 184.493 177.744 184.216C177.466 183.917 177.328 183.565 177.328 183.16V182.264C177.328 181.859 177.466 181.528 177.744 181.272C178.021 180.995 178.362 180.856 178.768 180.856H186.064C186.469 180.856 186.81 180.995 187.088 181.272C187.365 181.528 187.504 181.859 187.504 182.264V183.16ZM204.764 189.528C204.764 189.933 204.615 190.285 204.316 190.584C204.039 190.861 203.697 191 203.292 191H194.396C193.628 191 192.913 190.808 192.252 190.424C191.612 190.04 191.1 189.528 190.716 188.888C190.332 188.248 190.14 187.544 190.14 186.776V183.864C190.14 182.989 190.396 182.179 190.908 181.432C191.42 180.685 192.103 180.163 192.956 179.864L200.636 176.984C200.849 176.92 200.956 176.76 200.956 176.504V173.624C200.956 173.325 200.817 173.176 200.54 173.176H194.396C194.289 173.176 194.183 173.219 194.076 173.304C193.991 173.389 193.948 173.496 193.948 173.624V174.488C193.948 174.893 193.799 175.235 193.5 175.512C193.223 175.789 192.881 175.928 192.476 175.928H191.612C191.207 175.928 190.855 175.789 190.556 175.512C190.279 175.235 190.14 174.893 190.14 174.488V173.624C190.14 172.835 190.332 172.12 190.716 171.48C191.1 170.84 191.612 170.328 192.252 169.944C192.913 169.56 193.628 169.368 194.396 169.368H200.54C201.308 169.368 202.012 169.56 202.652 169.944C203.292 170.328 203.804 170.84 204.188 171.48C204.572 172.12 204.764 172.835 204.764 173.624V176.504C204.764 177.4 204.508 178.221 203.996 178.968C203.484 179.715 202.812 180.237 201.98 180.536L194.268 183.416C194.055 183.48 193.948 183.629 193.948 183.864V186.776C193.948 186.883 193.991 186.989 194.076 187.096C194.183 187.181 194.289 187.224 194.396 187.224H203.292C203.697 187.224 204.039 187.363 204.316 187.64C204.615 187.917 204.764 188.269 204.764 188.696V189.528ZM222.014 186.776C222.014 187.544 221.822 188.248 221.438 188.888C221.054 189.528 220.542 190.04 219.902 190.424C219.262 190.808 218.558 191 217.79 191H211.646C210.963 191 210.313 190.84 209.694 190.52L209.662 190.488C208.958 190.125 208.403 189.613 207.998 188.952C207.593 188.269 207.39 187.544 207.39 186.776V173.624C207.39 172.835 207.582 172.12 207.966 171.48C208.35 170.84 208.862 170.328 209.502 169.944C210.163 169.56 210.878 169.368 211.646 169.368H217.79C217.982 169.368 218.238 169.4 218.558 169.464C218.899 169.507 219.251 169.624 219.614 169.816H219.646C220.371 170.179 220.947 170.701 221.374 171.384C221.801 172.045 222.014 172.792 222.014 173.624V186.776ZM216.062 173.56C216.105 173.453 216.105 173.368 216.062 173.304C216.019 173.219 215.945 173.176 215.838 173.176H211.646C211.539 173.176 211.433 173.219 211.326 173.304C211.241 173.389 211.198 173.496 211.198 173.624V181.944C211.198 182.029 211.241 182.083 211.326 182.104C211.411 182.125 211.475 182.093 211.518 182.008L216.062 173.56ZM218.206 186.776V178.232C218.206 178.125 218.163 178.061 218.078 178.04C218.014 178.019 217.95 178.051 217.886 178.136L213.246 186.84C213.225 186.925 213.235 187.011 213.278 187.096C213.321 187.181 213.385 187.224 213.47 187.224H217.79C217.897 187.224 217.993 187.181 218.078 187.096C218.163 186.989 218.206 186.883 218.206 186.776ZM233.206 189.528C233.206 189.933 233.067 190.285 232.79 190.584C232.534 190.861 232.203 191 231.798 191H230.902C230.497 191 230.145 190.861 229.846 190.584C229.569 190.285 229.43 189.933 229.43 189.528V174.968C229.43 174.883 229.387 174.829 229.302 174.808C229.238 174.765 229.185 174.765 229.142 174.808L228.662 175.288C228.406 175.587 228.065 175.736 227.638 175.736C227.425 175.736 227.233 175.693 227.062 175.608C226.785 175.501 226.571 175.32 226.422 175.064C226.273 174.808 226.198 174.541 226.198 174.264V173.016C226.198 172.611 226.337 172.259 226.614 171.96L228.79 169.816C228.939 169.688 229.099 169.581 229.27 169.496C229.441 169.411 229.633 169.368 229.846 169.368H231.798C232.203 169.368 232.534 169.507 232.79 169.784C233.067 170.061 233.206 170.413 233.206 170.84V189.528ZM252.67 171.704C252.67 172.152 252.521 172.504 252.222 172.76C251.945 173.037 251.604 173.176 251.198 173.176H242.27C241.993 173.176 241.854 173.315 241.854 173.592V176.984C241.854 177.283 241.993 177.432 242.27 177.432H248.446C249.236 177.432 249.94 177.624 250.558 178.008C251.198 178.392 251.71 178.904 252.094 179.544C252.478 180.163 252.67 180.867 252.67 181.656V186.776C252.67 187.544 252.478 188.248 252.094 188.888C251.71 189.528 251.198 190.04 250.558 190.424C249.918 190.808 249.214 191 248.446 191H242.302C241.534 191 240.82 190.808 240.158 190.424C239.518 190.04 239.006 189.528 238.622 188.888C238.238 188.248 238.046 187.544 238.046 186.776V184.472C238.046 184.067 238.185 183.725 238.462 183.448C238.761 183.149 239.113 183 239.518 183H240.414C240.798 183 241.129 183.149 241.406 183.448C241.705 183.725 241.854 184.067 241.854 184.472V186.776C241.854 186.883 241.897 186.989 241.982 187.096C242.089 187.181 242.196 187.224 242.302 187.224H248.446C248.553 187.224 248.649 187.181 248.734 187.096C248.82 186.989 248.862 186.883 248.862 186.776V181.656C248.862 181.549 248.82 181.453 248.734 181.368C248.649 181.261 248.553 181.208 248.446 181.208H239.518C239.092 181.208 238.75 181.059 238.494 180.76C238.196 180.504 238.046 180.163 238.046 179.736V170.84C238.046 170.413 238.185 170.061 238.462 169.784C238.761 169.507 239.113 169.368 239.518 169.368H251.198C251.604 169.368 251.945 169.507 252.222 169.784C252.521 170.061 252.67 170.413 252.67 170.84V171.704ZM175.106 235.528C175.106 235.933 174.956 236.285 174.658 236.584C174.38 236.861 174.05 237 173.666 237H162.658C162.274 237 161.932 236.861 161.634 236.584C161.356 236.285 161.218 235.933 161.218 235.528V216.84C161.218 216.413 161.356 216.061 161.634 215.784C161.932 215.507 162.274 215.368 162.658 215.368H173.666C174.05 215.368 174.38 215.507 174.658 215.784C174.956 216.061 175.106 216.413 175.106 216.84V217.704C175.106 218.109 174.956 218.461 174.658 218.76C174.38 219.037 174.05 219.176 173.666 219.176H165.41C165.154 219.176 165.026 219.315 165.026 219.592V223.848C165.026 224.147 165.154 224.296 165.41 224.296H172.514C172.94 224.296 173.292 224.435 173.57 224.712C173.847 224.989 173.986 225.331 173.986 225.736V226.632C173.986 227.037 173.847 227.389 173.57 227.688C173.292 227.965 172.94 228.104 172.514 228.104H165.41C165.154 228.104 165.026 228.232 165.026 228.488V232.808C165.026 233.085 165.154 233.224 165.41 233.224H173.666C174.05 233.224 174.38 233.363 174.658 233.64C174.956 233.917 175.106 234.269 175.106 234.696V235.528ZM187.159 222.792C187.159 223.197 187.02 223.539 186.743 223.816C186.466 224.093 186.124 224.232 185.719 224.232H181.911C181.634 224.232 181.495 224.381 181.495 224.68V235.528C181.495 235.933 181.346 236.285 181.047 236.584C180.77 236.861 180.428 237 180.023 237H179.127C178.722 237 178.38 236.861 178.103 236.584C177.826 236.285 177.687 235.933 177.687 235.528V224.008C177.687 223.347 177.847 222.749 178.167 222.216C178.487 221.661 178.914 221.224 179.447 220.904C179.98 220.584 180.578 220.424 181.239 220.424H185.719C186.124 220.424 186.466 220.573 186.743 220.872C187.02 221.149 187.159 221.501 187.159 221.928V222.792ZM199.739 233.416C199.739 234.419 199.387 235.272 198.683 235.976C198 236.659 197.168 237 196.187 237H191.739C190.758 237 189.915 236.659 189.211 235.976C188.507 235.272 188.155 234.419 188.155 233.416V229.928C188.155 229.267 188.315 228.68 188.635 228.168C188.976 227.635 189.414 227.208 189.947 226.888C190.48 226.568 191.078 226.408 191.739 226.408H195.515C195.622 226.408 195.718 226.365 195.803 226.28C195.91 226.195 195.963 226.088 195.963 225.96V224.68C195.963 224.552 195.91 224.445 195.803 224.36C195.718 224.275 195.622 224.232 195.515 224.232H191.739C191.334 224.232 190.982 224.093 190.683 223.816C190.406 223.539 190.267 223.197 190.267 222.792V221.928C190.267 221.501 190.406 221.149 190.683 220.872C190.982 220.573 191.334 220.424 191.739 220.424H196.187C196.848 220.424 197.446 220.584 197.979 220.904C198.512 221.224 198.939 221.661 199.259 222.216C199.579 222.749 199.739 223.347 199.739 224.008V233.416ZM195.963 232.808V230.6C195.963 230.493 195.91 230.397 195.803 230.312C195.718 230.227 195.622 230.184 195.515 230.184H192.411C192.304 230.184 192.198 230.227 192.091 230.312C192.006 230.397 191.963 230.493 191.963 230.6V232.808C191.963 232.915 192.006 233.011 192.091 233.096C192.198 233.181 192.304 233.224 192.411 233.224H195.515C195.622 233.224 195.718 233.181 195.803 233.096C195.91 233.011 195.963 232.915 195.963 232.808Z" fill="black"/>
</svg>
