<svg width="336" height="341" viewBox="0 0 336 341" fill="none" xmlns="http://www.w3.org/2000/svg">
<path d="M335.279 120.25C274.114 221.191 176.304 264.602 81.4064 266.97C81.4602 254.877 81.2715 116.204 81.2496 79.2417C126.225 76.341 154.35 55.6281 173.332 26.7502C203.643 44.2497 335.279 120.25 335.279 120.25Z" fill="#B1245B"/>
<path d="M119.128 131.528C119.128 131.933 118.989 132.285 118.712 132.584C118.456 132.861 118.125 133 117.72 133H116.824C116.419 133 116.067 132.861 115.768 132.584C115.491 132.285 115.352 131.933 115.352 131.528V116.968C115.352 116.883 115.309 116.829 115.224 116.808C115.16 116.765 115.107 116.765 115.064 116.808L114.584 117.288C114.328 117.587 113.987 117.736 113.56 117.736C113.347 117.736 113.155 117.693 112.984 117.608C112.707 117.501 112.493 117.32 112.344 117.064C112.195 116.808 112.12 116.541 112.12 116.264V115.016C112.12 114.611 112.259 114.259 112.536 113.96L114.712 111.816C114.861 111.688 115.021 111.581 115.192 111.496C115.363 111.411 115.555 111.368 115.768 111.368H117.72C118.125 111.368 118.456 111.507 118.712 111.784C118.989 112.061 119.128 112.413 119.128 112.84V131.528ZM138.592 128.776C138.592 129.544 138.4 130.248 138.016 130.888C137.632 131.528 137.12 132.04 136.48 132.424C135.84 132.808 135.136 133 134.368 133H128.224C127.456 133 126.742 132.808 126.08 132.424C125.44 132.04 124.928 131.528 124.544 130.888C124.16 130.248 123.968 129.544 123.968 128.776V127.816C123.968 127.411 124.107 127.069 124.384 126.792C124.683 126.493 125.035 126.344 125.44 126.344H126.336C126.72 126.344 127.051 126.493 127.328 126.792C127.627 127.069 127.776 127.411 127.776 127.816V128.776C127.776 128.883 127.819 128.989 127.904 129.096C128.011 129.181 128.118 129.224 128.224 129.224H134.368C134.475 129.224 134.571 129.181 134.656 129.096C134.742 128.989 134.784 128.883 134.784 128.776V125.384C134.784 125.107 134.656 124.968 134.4 124.968H128.224C127.456 124.968 126.742 124.776 126.08 124.392C125.44 124.008 124.928 123.496 124.544 122.856C124.16 122.195 123.968 121.48 123.968 120.712V115.624C123.968 114.835 124.16 114.12 124.544 113.48C124.928 112.84 125.44 112.328 126.08 111.944C126.742 111.56 127.456 111.368 128.224 111.368H134.368C135.136 111.368 135.84 111.56 136.48 111.944C137.12 112.328 137.632 112.84 138.016 113.48C138.4 114.12 138.592 114.835 138.592 115.624V128.776ZM134.784 120.744V115.624C134.784 115.325 134.646 115.176 134.368 115.176H128.224C128.118 115.176 128.011 115.219 127.904 115.304C127.819 115.389 127.776 115.496 127.776 115.624V120.712C127.776 120.84 127.819 120.947 127.904 121.032C128.011 121.117 128.118 121.16 128.224 121.16H134.4C134.656 121.16 134.784 121.021 134.784 120.744ZM155.842 128.776C155.842 129.544 155.65 130.248 155.266 130.888C154.882 131.528 154.37 132.04 153.73 132.424C153.09 132.808 152.386 133 151.618 133H145.474C144.706 133 143.992 132.808 143.33 132.424C142.69 132.04 142.178 131.528 141.794 130.888C141.41 130.248 141.218 129.544 141.218 128.776V124.104C141.218 123.741 141.261 123.389 141.346 123.048C141.432 122.707 141.549 122.397 141.698 122.12C141.869 121.885 141.869 121.651 141.698 121.416C141.549 121.096 141.432 120.776 141.346 120.456C141.261 120.115 141.218 119.773 141.218 119.432V115.624C141.218 114.835 141.41 114.12 141.794 113.48C142.178 112.84 142.69 112.328 143.33 111.944C143.992 111.56 144.706 111.368 145.474 111.368H151.618C152.386 111.368 153.09 111.56 153.73 111.944C154.37 112.328 154.882 112.84 155.266 113.48C155.65 114.12 155.842 114.835 155.842 115.624V119.432C155.842 119.752 155.8 120.083 155.714 120.424C155.629 120.765 155.512 121.085 155.362 121.384C155.192 121.64 155.192 121.885 155.362 122.12C155.512 122.397 155.629 122.707 155.714 123.048C155.8 123.389 155.842 123.741 155.842 124.104V128.776ZM152.034 119.432V115.624C152.034 115.325 151.896 115.176 151.618 115.176H145.474C145.368 115.176 145.261 115.219 145.154 115.304C145.069 115.389 145.026 115.496 145.026 115.624V119.432C145.026 119.539 145.069 119.635 145.154 119.72C145.261 119.805 145.368 119.848 145.474 119.848H151.618C151.896 119.848 152.034 119.709 152.034 119.432ZM152.034 128.776V124.104C152.034 123.805 151.896 123.656 151.618 123.656H145.474C145.368 123.656 145.261 123.699 145.154 123.784C145.069 123.869 145.026 123.976 145.026 124.104V128.776C145.026 128.883 145.069 128.989 145.154 129.096C145.261 129.181 145.368 129.224 145.474 129.224H151.618C151.725 129.224 151.821 129.181 151.906 129.096C151.992 128.989 152.034 128.883 152.034 128.776ZM173.092 131.528C173.092 131.933 172.943 132.285 172.644 132.584C172.367 132.861 172.026 133 171.62 133H162.724C161.956 133 161.242 132.808 160.58 132.424C159.94 132.04 159.428 131.528 159.044 130.888C158.66 130.248 158.468 129.544 158.468 128.776V125.864C158.468 124.989 158.724 124.179 159.236 123.432C159.748 122.685 160.431 122.163 161.284 121.864L168.964 118.984C169.178 118.92 169.284 118.76 169.284 118.504V115.624C169.284 115.325 169.146 115.176 168.868 115.176H162.724C162.618 115.176 162.511 115.219 162.404 115.304C162.319 115.389 162.276 115.496 162.276 115.624V116.488C162.276 116.893 162.127 117.235 161.828 117.512C161.551 117.789 161.21 117.928 160.804 117.928H159.94C159.535 117.928 159.183 117.789 158.884 117.512C158.607 117.235 158.468 116.893 158.468 116.488V115.624C158.468 114.835 158.66 114.12 159.044 113.48C159.428 112.84 159.94 112.328 160.58 111.944C161.242 111.56 161.956 111.368 162.724 111.368H168.868C169.636 111.368 170.34 111.56 170.98 111.944C171.62 112.328 172.132 112.84 172.516 113.48C172.9 114.12 173.092 114.835 173.092 115.624V118.504C173.092 119.4 172.836 120.221 172.324 120.968C171.812 121.715 171.14 122.237 170.308 122.536L162.596 125.416C162.383 125.48 162.276 125.629 162.276 125.864V128.776C162.276 128.883 162.319 128.989 162.404 129.096C162.511 129.181 162.618 129.224 162.724 129.224H171.62C172.026 129.224 172.367 129.363 172.644 129.64C172.943 129.917 173.092 130.269 173.092 130.696V131.528ZM193.269 125.16C193.269 125.565 193.131 125.917 192.853 126.216C192.576 126.493 192.235 126.632 191.829 126.632H184.533C184.128 126.632 183.787 126.493 183.509 126.216C183.232 125.917 183.093 125.565 183.093 125.16V124.264C183.093 123.859 183.232 123.528 183.509 123.272C183.787 122.995 184.128 122.856 184.533 122.856H191.829C192.235 122.856 192.576 122.995 192.853 123.272C193.131 123.528 193.269 123.859 193.269 124.264V125.16ZM206.722 131.528C206.722 131.933 206.583 132.285 206.306 132.584C206.05 132.861 205.719 133 205.314 133H204.418C204.012 133 203.66 132.861 203.362 132.584C203.084 132.285 202.946 131.933 202.946 131.528V116.968C202.946 116.883 202.903 116.829 202.818 116.808C202.754 116.765 202.7 116.765 202.658 116.808L202.178 117.288C201.922 117.587 201.58 117.736 201.154 117.736C200.94 117.736 200.748 117.693 200.578 117.608C200.3 117.501 200.087 117.32 199.938 117.064C199.788 116.808 199.714 116.541 199.714 116.264V115.016C199.714 114.611 199.852 114.259 200.13 113.96L202.306 111.816C202.455 111.688 202.615 111.581 202.786 111.496C202.956 111.411 203.148 111.368 203.362 111.368H205.314C205.719 111.368 206.05 111.507 206.306 111.784C206.583 112.061 206.722 112.413 206.722 112.84V131.528ZM226.186 128.776C226.186 129.544 225.994 130.248 225.61 130.888C225.226 131.528 224.714 132.04 224.074 132.424C223.434 132.808 222.73 133 221.962 133H215.818C215.05 133 214.335 132.808 213.674 132.424C213.034 132.04 212.522 131.528 212.138 130.888C211.754 130.248 211.562 129.544 211.562 128.776V127.816C211.562 127.411 211.701 127.069 211.978 126.792C212.277 126.493 212.629 126.344 213.034 126.344H213.93C214.314 126.344 214.645 126.493 214.922 126.792C215.221 127.069 215.37 127.411 215.37 127.816V128.776C215.37 128.883 215.413 128.989 215.498 129.096C215.605 129.181 215.711 129.224 215.818 129.224H221.962C222.069 129.224 222.165 129.181 222.25 129.096C222.335 128.989 222.378 128.883 222.378 128.776V125.384C222.378 125.107 222.25 124.968 221.994 124.968H215.818C215.05 124.968 214.335 124.776 213.674 124.392C213.034 124.008 212.522 123.496 212.138 122.856C211.754 122.195 211.562 121.48 211.562 120.712V115.624C211.562 114.835 211.754 114.12 212.138 113.48C212.522 112.84 213.034 112.328 213.674 111.944C214.335 111.56 215.05 111.368 215.818 111.368H221.962C222.73 111.368 223.434 111.56 224.074 111.944C224.714 112.328 225.226 112.84 225.61 113.48C225.994 114.12 226.186 114.835 226.186 115.624V128.776ZM222.378 120.744V115.624C222.378 115.325 222.239 115.176 221.962 115.176H215.818C215.711 115.176 215.605 115.219 215.498 115.304C215.413 115.389 215.37 115.496 215.37 115.624V120.712C215.37 120.84 215.413 120.947 215.498 121.032C215.605 121.117 215.711 121.16 215.818 121.16H221.994C222.25 121.16 222.378 121.021 222.378 120.744ZM243.436 128.776C243.436 129.544 243.244 130.248 242.86 130.888C242.476 131.528 241.964 132.04 241.324 132.424C240.684 132.808 239.98 133 239.212 133H233.068C232.3 133 231.585 132.808 230.924 132.424C230.284 132.04 229.772 131.528 229.388 130.888C229.004 130.248 228.812 129.544 228.812 128.776V127.816C228.812 127.411 228.951 127.069 229.228 126.792C229.527 126.493 229.879 126.344 230.284 126.344H231.18C231.564 126.344 231.895 126.493 232.172 126.792C232.471 127.069 232.62 127.411 232.62 127.816V128.776C232.62 128.883 232.663 128.989 232.748 129.096C232.855 129.181 232.961 129.224 233.068 129.224H239.212C239.319 129.224 239.415 129.181 239.5 129.096C239.585 128.989 239.628 128.883 239.628 128.776V125.384C239.628 125.107 239.5 124.968 239.244 124.968H233.068C232.3 124.968 231.585 124.776 230.924 124.392C230.284 124.008 229.772 123.496 229.388 122.856C229.004 122.195 228.812 121.48 228.812 120.712V115.624C228.812 114.835 229.004 114.12 229.388 113.48C229.772 112.84 230.284 112.328 230.924 111.944C231.585 111.56 232.3 111.368 233.068 111.368H239.212C239.98 111.368 240.684 111.56 241.324 111.944C241.964 112.328 242.476 112.84 242.86 113.48C243.244 114.12 243.436 114.835 243.436 115.624V128.776ZM239.628 120.744V115.624C239.628 115.325 239.489 115.176 239.212 115.176H233.068C232.961 115.176 232.855 115.219 232.748 115.304C232.663 115.389 232.62 115.496 232.62 115.624V120.712C232.62 120.84 232.663 120.947 232.748 121.032C232.855 121.117 232.961 121.16 233.068 121.16H239.244C239.5 121.16 239.628 121.021 239.628 120.744ZM260.686 128.776C260.686 129.544 260.494 130.248 260.11 130.888C259.726 131.528 259.214 132.04 258.574 132.424C257.934 132.808 257.23 133 256.462 133H250.318C249.635 133 248.985 132.84 248.366 132.52L248.334 132.488C247.63 132.125 247.075 131.613 246.67 130.952C246.265 130.269 246.062 129.544 246.062 128.776V115.624C246.062 114.835 246.254 114.12 246.638 113.48C247.022 112.84 247.534 112.328 248.174 111.944C248.835 111.56 249.55 111.368 250.318 111.368H256.462C256.654 111.368 256.91 111.4 257.23 111.464C257.571 111.507 257.923 111.624 258.286 111.816H258.318C259.043 112.179 259.619 112.701 260.046 113.384C260.473 114.045 260.686 114.792 260.686 115.624V128.776ZM254.734 115.56C254.777 115.453 254.777 115.368 254.734 115.304C254.691 115.219 254.617 115.176 254.51 115.176H250.318C250.211 115.176 250.105 115.219 249.998 115.304C249.913 115.389 249.87 115.496 249.87 115.624V123.944C249.87 124.029 249.913 124.083 249.998 124.104C250.083 124.125 250.147 124.093 250.19 124.008L254.734 115.56ZM256.878 128.776V120.232C256.878 120.125 256.835 120.061 256.75 120.04C256.686 120.019 256.622 120.051 256.558 120.136L251.918 128.84C251.897 128.925 251.907 129.011 251.95 129.096C251.993 129.181 252.057 129.224 252.142 129.224H256.462C256.569 129.224 256.665 129.181 256.75 129.096C256.835 128.989 256.878 128.883 256.878 128.776ZM179.106 177.528C179.106 177.933 178.956 178.285 178.658 178.584C178.38 178.861 178.05 179 177.666 179H166.658C166.274 179 165.932 178.861 165.634 178.584C165.356 178.285 165.218 177.933 165.218 177.528V158.84C165.218 158.413 165.356 158.061 165.634 157.784C165.932 157.507 166.274 157.368 166.658 157.368H177.666C178.05 157.368 178.38 157.507 178.658 157.784C178.956 158.061 179.106 158.413 179.106 158.84V159.704C179.106 160.109 178.956 160.461 178.658 160.76C178.38 161.037 178.05 161.176 177.666 161.176H169.41C169.154 161.176 169.026 161.315 169.026 161.592V165.848C169.026 166.147 169.154 166.296 169.41 166.296H176.514C176.94 166.296 177.292 166.435 177.57 166.712C177.847 166.989 177.986 167.331 177.986 167.736V168.632C177.986 169.037 177.847 169.389 177.57 169.688C177.292 169.965 176.94 170.104 176.514 170.104H169.41C169.154 170.104 169.026 170.232 169.026 170.488V174.808C169.026 175.085 169.154 175.224 169.41 175.224H177.666C178.05 175.224 178.38 175.363 178.658 175.64C178.956 175.917 179.106 176.269 179.106 176.696V177.528ZM191.159 164.792C191.159 165.197 191.02 165.539 190.743 165.816C190.466 166.093 190.124 166.232 189.719 166.232H185.911C185.634 166.232 185.495 166.381 185.495 166.68V177.528C185.495 177.933 185.346 178.285 185.047 178.584C184.77 178.861 184.428 179 184.023 179H183.127C182.722 179 182.38 178.861 182.103 178.584C181.826 178.285 181.687 177.933 181.687 177.528V166.008C181.687 165.347 181.847 164.749 182.167 164.216C182.487 163.661 182.914 163.224 183.447 162.904C183.98 162.584 184.578 162.424 185.239 162.424H189.719C190.124 162.424 190.466 162.573 190.743 162.872C191.02 163.149 191.159 163.501 191.159 163.928V164.792ZM203.739 175.416C203.739 176.419 203.387 177.272 202.683 177.976C202 178.659 201.168 179 200.187 179H195.739C194.758 179 193.915 178.659 193.211 177.976C192.507 177.272 192.155 176.419 192.155 175.416V171.928C192.155 171.267 192.315 170.68 192.635 170.168C192.976 169.635 193.414 169.208 193.947 168.888C194.48 168.568 195.078 168.408 195.739 168.408H199.515C199.622 168.408 199.718 168.365 199.803 168.28C199.91 168.195 199.963 168.088 199.963 167.96V166.68C199.963 166.552 199.91 166.445 199.803 166.36C199.718 166.275 199.622 166.232 199.515 166.232H195.739C195.334 166.232 194.982 166.093 194.683 165.816C194.406 165.539 194.267 165.197 194.267 164.792V163.928C194.267 163.501 194.406 163.149 194.683 162.872C194.982 162.573 195.334 162.424 195.739 162.424H200.187C200.848 162.424 201.446 162.584 201.979 162.904C202.512 163.224 202.939 163.661 203.259 164.216C203.579 164.749 203.739 165.347 203.739 166.008V175.416ZM199.963 174.808V172.6C199.963 172.493 199.91 172.397 199.803 172.312C199.718 172.227 199.622 172.184 199.515 172.184H196.411C196.304 172.184 196.198 172.227 196.091 172.312C196.006 172.397 195.963 172.493 195.963 172.6V174.808C195.963 174.915 196.006 175.011 196.091 175.096C196.198 175.181 196.304 175.224 196.411 175.224H199.515C199.622 175.224 199.718 175.181 199.803 175.096C199.91 175.011 199.963 174.915 199.963 174.808Z" fill="black"/>
</svg>
