<svg width="254" height="241" viewBox="0 0 254 241" fill="none" xmlns="http://www.w3.org/2000/svg">
<path d="M253.999 240.5C136 238 49.5 175 1.51396e-05 94C10.5 88 130.5 18.5 162.499 1.43349e-05C187.499 37.4997 219.499 51.5 253.999 53.5C254 88.5 253.999 240.5 253.999 240.5Z" fill="#D04A2A"/>
<path d="M75.3311 104.528C75.3311 104.933 75.1925 105.285 74.9151 105.584C74.6591 105.861 74.3285 106 73.9231 106H73.0271C72.6218 106 72.2698 105.861 71.9711 105.584C71.6938 105.285 71.5551 104.933 71.5551 104.528V89.968C71.5551 89.8827 71.5125 89.8293 71.4271 89.808C71.3631 89.7653 71.3098 89.7653 71.2671 89.808L70.7871 90.288C70.5311 90.5867 70.1898 90.736 69.7631 90.736C69.5498 90.736 69.3578 90.6933 69.1871 90.608C68.9098 90.5013 68.6965 90.32 68.5471 90.064C68.3978 89.808 68.3231 89.5413 68.3231 89.264V88.016C68.3231 87.6107 68.4618 87.2587 68.7391 86.96L70.9151 84.816C71.0645 84.688 71.2245 84.5813 71.3951 84.496C71.5658 84.4107 71.7578 84.368 71.9711 84.368H73.9231C74.3285 84.368 74.6591 84.5067 74.9151 84.784C75.1925 85.0613 75.3311 85.4133 75.3311 85.84V104.528ZM94.7954 101.776C94.7954 102.544 94.6034 103.248 94.2194 103.888C93.8354 104.528 93.3234 105.04 92.6834 105.424C92.0434 105.808 91.3394 106 90.5714 106H84.4274C83.6594 106 82.9447 105.808 82.2834 105.424C81.6434 105.04 81.1314 104.528 80.7474 103.888C80.3634 103.248 80.1714 102.544 80.1714 101.776V100.816C80.1714 100.411 80.31 100.069 80.5874 99.792C80.886 99.4933 81.238 99.344 81.6434 99.344H82.5394C82.9234 99.344 83.254 99.4933 83.5314 99.792C83.83 100.069 83.9794 100.411 83.9794 100.816V101.776C83.9794 101.883 84.022 101.989 84.1074 102.096C84.214 102.181 84.3207 102.224 84.4274 102.224H90.5714C90.678 102.224 90.774 102.181 90.8594 102.096C90.9447 101.989 90.9874 101.883 90.9874 101.776V98.384C90.9874 98.1067 90.8594 97.968 90.6034 97.968H84.4274C83.6594 97.968 82.9447 97.776 82.2834 97.392C81.6434 97.008 81.1314 96.496 80.7474 95.856C80.3634 95.1947 80.1714 94.48 80.1714 93.712V88.624C80.1714 87.8347 80.3634 87.12 80.7474 86.48C81.1314 85.84 81.6434 85.328 82.2834 84.944C82.9447 84.56 83.6594 84.368 84.4274 84.368H90.5714C91.3394 84.368 92.0434 84.56 92.6834 84.944C93.3234 85.328 93.8354 85.84 94.2194 86.48C94.6034 87.12 94.7954 87.8347 94.7954 88.624V101.776ZM90.9874 93.744V88.624C90.9874 88.3253 90.8487 88.176 90.5714 88.176H84.4274C84.3207 88.176 84.214 88.2187 84.1074 88.304C84.022 88.3893 83.9794 88.496 83.9794 88.624V93.712C83.9794 93.84 84.022 93.9467 84.1074 94.032C84.214 94.1173 84.3207 94.16 84.4274 94.16H90.6034C90.8594 94.16 90.9874 94.0213 90.9874 93.744ZM112.045 101.776C112.045 102.544 111.853 103.248 111.469 103.888C111.085 104.528 110.573 105.04 109.933 105.424C109.293 105.808 108.589 106 107.821 106H101.677C100.909 106 100.195 105.808 99.5334 105.424C98.8934 105.04 98.3814 104.528 97.9974 103.888C97.6134 103.248 97.4214 102.544 97.4214 101.776V100.816C97.4214 100.411 97.56 100.069 97.8374 99.792C98.136 99.4933 98.488 99.344 98.8934 99.344H99.7894C100.173 99.344 100.504 99.4933 100.781 99.792C101.08 100.069 101.229 100.411 101.229 100.816V101.776C101.229 101.883 101.272 101.989 101.357 102.096C101.464 102.181 101.571 102.224 101.677 102.224H107.821C107.928 102.224 108.024 102.181 108.109 102.096C108.195 101.989 108.237 101.883 108.237 101.776V98.384C108.237 98.1067 108.109 97.968 107.853 97.968H101.677C100.909 97.968 100.195 97.776 99.5334 97.392C98.8934 97.008 98.3814 96.496 97.9974 95.856C97.6134 95.1947 97.4214 94.48 97.4214 93.712V88.624C97.4214 87.8347 97.6134 87.12 97.9974 86.48C98.3814 85.84 98.8934 85.328 99.5334 84.944C100.195 84.56 100.909 84.368 101.677 84.368H107.821C108.589 84.368 109.293 84.56 109.933 84.944C110.573 85.328 111.085 85.84 111.469 86.48C111.853 87.12 112.045 87.8347 112.045 88.624V101.776ZM108.237 93.744V88.624C108.237 88.3253 108.099 88.176 107.821 88.176H101.677C101.571 88.176 101.464 88.2187 101.357 88.304C101.272 88.3893 101.229 88.496 101.229 88.624V93.712C101.229 93.84 101.272 93.9467 101.357 94.032C101.464 94.1173 101.571 94.16 101.677 94.16H107.853C108.109 94.16 108.237 94.0213 108.237 93.744ZM129.295 101.776C129.295 102.544 129.103 103.248 128.719 103.888C128.335 104.528 127.823 105.04 127.183 105.424C126.543 105.808 125.839 106 125.071 106H118.927C118.245 106 117.594 105.84 116.975 105.52L116.943 105.488C116.239 105.125 115.685 104.613 115.279 103.952C114.874 103.269 114.671 102.544 114.671 101.776V88.624C114.671 87.8347 114.863 87.12 115.247 86.48C115.631 85.84 116.143 85.328 116.783 84.944C117.445 84.56 118.159 84.368 118.927 84.368H125.071C125.263 84.368 125.519 84.4 125.839 84.464C126.181 84.5067 126.533 84.624 126.895 84.816H126.927C127.653 85.1787 128.229 85.7013 128.655 86.384C129.082 87.0453 129.295 87.792 129.295 88.624V101.776ZM123.343 88.56C123.386 88.4533 123.386 88.368 123.343 88.304C123.301 88.2187 123.226 88.176 123.119 88.176H118.927C118.821 88.176 118.714 88.2187 118.607 88.304C118.522 88.3893 118.479 88.496 118.479 88.624V96.944C118.479 97.0293 118.522 97.0827 118.607 97.104C118.693 97.1253 118.757 97.0933 118.799 97.008L123.343 88.56ZM125.487 101.776V93.232C125.487 93.1253 125.445 93.0613 125.359 93.04C125.295 93.0187 125.231 93.0507 125.167 93.136L120.527 101.84C120.506 101.925 120.517 102.011 120.559 102.096C120.602 102.181 120.666 102.224 120.751 102.224H125.071C125.178 102.224 125.274 102.181 125.359 102.096C125.445 101.989 125.487 101.883 125.487 101.776ZM149.472 98.16C149.472 98.5653 149.334 98.9173 149.056 99.216C148.779 99.4933 148.438 99.632 148.032 99.632H140.736C140.331 99.632 139.99 99.4933 139.712 99.216C139.435 98.9173 139.296 98.5653 139.296 98.16V97.264C139.296 96.8587 139.435 96.528 139.712 96.272C139.99 95.9947 140.331 95.856 140.736 95.856H148.032C148.438 95.856 148.779 95.9947 149.056 96.272C149.334 96.528 149.472 96.8587 149.472 97.264V98.16ZM166.733 104.528C166.733 104.933 166.584 105.285 166.285 105.584C166.008 105.861 165.666 106 165.261 106H156.365C155.597 106 154.882 105.808 154.221 105.424C153.581 105.04 153.069 104.528 152.685 103.888C152.301 103.248 152.109 102.544 152.109 101.776V98.864C152.109 97.9893 152.365 97.1787 152.877 96.432C153.389 95.6853 154.072 95.1627 154.925 94.864L162.605 91.984C162.818 91.92 162.925 91.76 162.925 91.504V88.624C162.925 88.3253 162.786 88.176 162.509 88.176H156.365C156.258 88.176 156.152 88.2187 156.045 88.304C155.96 88.3893 155.917 88.496 155.917 88.624V89.488C155.917 89.8933 155.768 90.2347 155.469 90.512C155.192 90.7893 154.85 90.928 154.445 90.928H153.581C153.176 90.928 152.824 90.7893 152.525 90.512C152.248 90.2347 152.109 89.8933 152.109 89.488V88.624C152.109 87.8347 152.301 87.12 152.685 86.48C153.069 85.84 153.581 85.328 154.221 84.944C154.882 84.56 155.597 84.368 156.365 84.368H162.509C163.277 84.368 163.981 84.56 164.621 84.944C165.261 85.328 165.773 85.84 166.157 86.48C166.541 87.12 166.733 87.8347 166.733 88.624V91.504C166.733 92.4 166.477 93.2213 165.965 93.968C165.453 94.7147 164.781 95.2373 163.949 95.536L156.237 98.416C156.024 98.48 155.917 98.6293 155.917 98.864V101.776C155.917 101.883 155.96 101.989 156.045 102.096C156.152 102.181 156.258 102.224 156.365 102.224H165.261C165.666 102.224 166.008 102.363 166.285 102.64C166.584 102.917 166.733 103.269 166.733 103.696V104.528ZM183.983 101.776C183.983 102.544 183.791 103.248 183.407 103.888C183.023 104.528 182.511 105.04 181.871 105.424C181.231 105.808 180.527 106 179.759 106H173.615C172.932 106 172.282 105.84 171.663 105.52L171.631 105.488C170.927 105.125 170.372 104.613 169.967 103.952C169.562 103.269 169.359 102.544 169.359 101.776V88.624C169.359 87.8347 169.551 87.12 169.935 86.48C170.319 85.84 170.831 85.328 171.471 84.944C172.132 84.56 172.847 84.368 173.615 84.368H179.759C179.951 84.368 180.207 84.4 180.527 84.464C180.868 84.5067 181.22 84.624 181.583 84.816H181.615C182.34 85.1787 182.916 85.7013 183.343 86.384C183.77 87.0453 183.983 87.792 183.983 88.624V101.776ZM178.031 88.56C178.074 88.4533 178.074 88.368 178.031 88.304C177.988 88.2187 177.914 88.176 177.807 88.176H173.615C173.508 88.176 173.402 88.2187 173.295 88.304C173.21 88.3893 173.167 88.496 173.167 88.624V96.944C173.167 97.0293 173.21 97.0827 173.295 97.104C173.38 97.1253 173.444 97.0933 173.487 97.008L178.031 88.56ZM180.175 101.776V93.232C180.175 93.1253 180.132 93.0613 180.047 93.04C179.983 93.0187 179.919 93.0507 179.855 93.136L175.215 101.84C175.194 101.925 175.204 102.011 175.247 102.096C175.29 102.181 175.354 102.224 175.439 102.224H179.759C179.866 102.224 179.962 102.181 180.047 102.096C180.132 101.989 180.175 101.883 180.175 101.776ZM201.233 101.776C201.233 102.544 201.041 103.248 200.657 103.888C200.273 104.528 199.761 105.04 199.121 105.424C198.481 105.808 197.777 106 197.009 106H190.865C190.182 106 189.532 105.84 188.913 105.52L188.881 105.488C188.177 105.125 187.622 104.613 187.217 103.952C186.812 103.269 186.609 102.544 186.609 101.776V88.624C186.609 87.8347 186.801 87.12 187.185 86.48C187.569 85.84 188.081 85.328 188.721 84.944C189.382 84.56 190.097 84.368 190.865 84.368H197.009C197.201 84.368 197.457 84.4 197.777 84.464C198.118 84.5067 198.47 84.624 198.833 84.816H198.865C199.59 85.1787 200.166 85.7013 200.593 86.384C201.02 87.0453 201.233 87.792 201.233 88.624V101.776ZM195.281 88.56C195.324 88.4533 195.324 88.368 195.281 88.304C195.238 88.2187 195.164 88.176 195.057 88.176H190.865C190.758 88.176 190.652 88.2187 190.545 88.304C190.46 88.3893 190.417 88.496 190.417 88.624V96.944C190.417 97.0293 190.46 97.0827 190.545 97.104C190.63 97.1253 190.694 97.0933 190.737 97.008L195.281 88.56ZM197.425 101.776V93.232C197.425 93.1253 197.382 93.0613 197.297 93.04C197.233 93.0187 197.169 93.0507 197.105 93.136L192.465 101.84C192.444 101.925 192.454 102.011 192.497 102.096C192.54 102.181 192.604 102.224 192.689 102.224H197.009C197.116 102.224 197.212 102.181 197.297 102.096C197.382 101.989 197.425 101.883 197.425 101.776ZM218.483 101.776C218.483 102.544 218.291 103.248 217.907 103.888C217.523 104.528 217.011 105.04 216.371 105.424C215.731 105.808 215.027 106 214.259 106H208.115C207.432 106 206.782 105.84 206.163 105.52L206.131 105.488C205.427 105.125 204.872 104.613 204.467 103.952C204.062 103.269 203.859 102.544 203.859 101.776V88.624C203.859 87.8347 204.051 87.12 204.435 86.48C204.819 85.84 205.331 85.328 205.971 84.944C206.632 84.56 207.347 84.368 208.115 84.368H214.259C214.451 84.368 214.707 84.4 215.027 84.464C215.368 84.5067 215.72 84.624 216.083 84.816H216.115C216.84 85.1787 217.416 85.7013 217.843 86.384C218.27 87.0453 218.483 87.792 218.483 88.624V101.776ZM212.531 88.56C212.574 88.4533 212.574 88.368 212.531 88.304C212.488 88.2187 212.414 88.176 212.307 88.176H208.115C208.008 88.176 207.902 88.2187 207.795 88.304C207.71 88.3893 207.667 88.496 207.667 88.624V96.944C207.667 97.0293 207.71 97.0827 207.795 97.104C207.88 97.1253 207.944 97.0933 207.987 97.008L212.531 88.56ZM214.675 101.776V93.232C214.675 93.1253 214.632 93.0613 214.547 93.04C214.483 93.0187 214.419 93.0507 214.355 93.136L209.715 101.84C209.694 101.925 209.704 102.011 209.747 102.096C209.79 102.181 209.854 102.224 209.939 102.224H214.259C214.366 102.224 214.462 102.181 214.547 102.096C214.632 101.989 214.675 101.883 214.675 101.776ZM136.106 150.528C136.106 150.933 135.956 151.285 135.658 151.584C135.38 151.861 135.05 152 134.666 152H123.658C123.274 152 122.932 151.861 122.634 151.584C122.356 151.285 122.218 150.933 122.218 150.528V131.84C122.218 131.413 122.356 131.061 122.634 130.784C122.932 130.507 123.274 130.368 123.658 130.368H134.666C135.05 130.368 135.38 130.507 135.658 130.784C135.956 131.061 136.106 131.413 136.106 131.84V132.704C136.106 133.109 135.956 133.461 135.658 133.76C135.38 134.037 135.05 134.176 134.666 134.176H126.41C126.154 134.176 126.026 134.315 126.026 134.592V138.848C126.026 139.147 126.154 139.296 126.41 139.296H133.514C133.94 139.296 134.292 139.435 134.57 139.712C134.847 139.989 134.986 140.331 134.986 140.736V141.632C134.986 142.037 134.847 142.389 134.57 142.688C134.292 142.965 133.94 143.104 133.514 143.104H126.41C126.154 143.104 126.026 143.232 126.026 143.488V147.808C126.026 148.085 126.154 148.224 126.41 148.224H134.666C135.05 148.224 135.38 148.363 135.658 148.64C135.956 148.917 136.106 149.269 136.106 149.696V150.528ZM148.159 137.792C148.159 138.197 148.02 138.539 147.743 138.816C147.466 139.093 147.124 139.232 146.719 139.232H142.911C142.634 139.232 142.495 139.381 142.495 139.68V150.528C142.495 150.933 142.346 151.285 142.047 151.584C141.77 151.861 141.428 152 141.023 152H140.127C139.722 152 139.38 151.861 139.103 151.584C138.826 151.285 138.687 150.933 138.687 150.528V139.008C138.687 138.347 138.847 137.749 139.167 137.216C139.487 136.661 139.914 136.224 140.447 135.904C140.98 135.584 141.578 135.424 142.239 135.424H146.719C147.124 135.424 147.466 135.573 147.743 135.872C148.02 136.149 148.159 136.501 148.159 136.928V137.792ZM160.739 148.416C160.739 149.419 160.387 150.272 159.683 150.976C159 151.659 158.168 152 157.187 152H152.739C151.758 152 150.915 151.659 150.211 150.976C149.507 150.272 149.155 149.419 149.155 148.416V144.928C149.155 144.267 149.315 143.68 149.635 143.168C149.976 142.635 150.414 142.208 150.947 141.888C151.48 141.568 152.078 141.408 152.739 141.408H156.515C156.622 141.408 156.718 141.365 156.803 141.28C156.91 141.195 156.963 141.088 156.963 140.96V139.68C156.963 139.552 156.91 139.445 156.803 139.36C156.718 139.275 156.622 139.232 156.515 139.232H152.739C152.334 139.232 151.982 139.093 151.683 138.816C151.406 138.539 151.267 138.197 151.267 137.792V136.928C151.267 136.501 151.406 136.149 151.683 135.872C151.982 135.573 152.334 135.424 152.739 135.424H157.187C157.848 135.424 158.446 135.584 158.979 135.904C159.512 136.224 159.939 136.661 160.259 137.216C160.579 137.749 160.739 138.347 160.739 139.008V148.416ZM156.963 147.808V145.6C156.963 145.493 156.91 145.397 156.803 145.312C156.718 145.227 156.622 145.184 156.515 145.184H153.411C153.304 145.184 153.198 145.227 153.091 145.312C153.006 145.397 152.963 145.493 152.963 145.6V147.808C152.963 147.915 153.006 148.011 153.091 148.096C153.198 148.181 153.304 148.224 153.411 148.224H156.515C156.622 148.224 156.718 148.181 156.803 148.096C156.91 148.011 156.963 147.915 156.963 147.808Z" fill="black"/>
</svg>
