<svg width="759" height="195" viewBox="0 0 759 195" fill="none" xmlns="http://www.w3.org/2000/svg">
<path d="M151 0L231 37L188.5 195H0L151 0Z" fill="#959595"/>
<path d="M608 0L528 37L570.5 195H759L608 0Z" fill="#959595"/>
<path d="M596.5 32L550 66.0462L578.701 173H706L596.5 32Z" fill="#7B7B7B"/>
<path d="M586.587 54L569 66.7975L579.855 107H628L586.587 54Z" fill="#C3C3C3"/>
<path d="M635.662 122L583.517 122L592.517 156L663.162 156L635.662 122Z" fill="#C3C3C3"/>
<path d="M161.5 36L208 70.0462L179.299 177H52L161.5 36Z" fill="#7B7B7B"/>
<path d="M117.5 128L169.645 128L160.645 162L90 162L117.5 128Z" fill="#C3C3C3"/>
<path d="M167.413 57L185 69.7975L174.145 110H126L167.413 57Z" fill="#C3C3C3"/>
</svg>
