<svg width="336" height="341" viewBox="0 0 336 341" fill="none" xmlns="http://www.w3.org/2000/svg">
<path d="M0.000149221 219.97C61.1648 119.029 158.974 75.6183 253.873 73.25C253.819 85.3433 254.007 224.016 254.029 260.978C209.054 263.879 180.929 284.592 161.947 313.47C131.636 295.97 0.000149221 219.97 0.000149221 219.97Z" fill="#EEBD31"/>
<path d="M114.655 174.776C114.655 175.544 114.463 176.248 114.079 176.888C113.695 177.528 113.183 178.04 112.543 178.424C111.903 178.808 111.199 179 110.431 179H104.287C103.519 179 102.804 178.808 102.143 178.424C101.503 178.04 100.991 177.528 100.607 176.888C100.223 176.248 100.031 175.544 100.031 174.776V161.624C100.031 160.835 100.223 160.12 100.607 159.48C100.991 158.84 101.503 158.328 102.143 157.944C102.804 157.56 103.519 157.368 104.287 157.368H110.431C111.199 157.368 111.903 157.56 112.543 157.944C113.183 158.328 113.695 158.84 114.079 159.48C114.463 160.12 114.655 160.835 114.655 161.624V162.488C114.655 162.893 114.505 163.235 114.207 163.512C113.929 163.789 113.588 163.928 113.183 163.928H112.319C111.913 163.928 111.561 163.789 111.263 163.512C110.985 163.235 110.847 162.893 110.847 162.488V161.624C110.847 161.325 110.708 161.176 110.431 161.176H104.287C104.18 161.176 104.073 161.219 103.967 161.304C103.881 161.389 103.839 161.496 103.839 161.624V174.776C103.839 174.883 103.881 174.989 103.967 175.096C104.073 175.181 104.18 175.224 104.287 175.224H110.431C110.537 175.224 110.633 175.181 110.719 175.096C110.804 174.989 110.847 174.883 110.847 174.776V170.488C110.847 170.232 110.719 170.104 110.463 170.104H108.191C107.785 170.104 107.433 169.965 107.135 169.688C106.857 169.389 106.719 169.037 106.719 168.632V167.736C106.719 167.331 106.857 166.989 107.135 166.712C107.433 166.435 107.785 166.296 108.191 166.296H113.183C113.588 166.296 113.929 166.435 114.207 166.712C114.505 166.989 114.655 167.331 114.655 167.736V174.776ZM128.833 175.416C128.833 176.419 128.481 177.272 127.777 177.976C127.094 178.659 126.262 179 125.281 179H120.833C119.851 179 119.009 178.659 118.305 177.976C117.601 177.272 117.249 176.419 117.249 175.416V171.928C117.249 171.267 117.409 170.68 117.729 170.168C118.07 169.635 118.507 169.208 119.041 168.888C119.574 168.568 120.171 168.408 120.833 168.408H124.609C124.715 168.408 124.811 168.365 124.897 168.28C125.003 168.195 125.057 168.088 125.057 167.96V166.68C125.057 166.552 125.003 166.445 124.897 166.36C124.811 166.275 124.715 166.232 124.609 166.232H120.833C120.427 166.232 120.075 166.093 119.777 165.816C119.499 165.539 119.361 165.197 119.361 164.792V163.928C119.361 163.501 119.499 163.149 119.777 162.872C120.075 162.573 120.427 162.424 120.833 162.424H125.281C125.942 162.424 126.539 162.584 127.073 162.904C127.606 163.224 128.033 163.661 128.353 164.216C128.673 164.749 128.833 165.347 128.833 166.008V175.416ZM125.057 174.808V172.6C125.057 172.493 125.003 172.397 124.897 172.312C124.811 172.227 124.715 172.184 124.609 172.184H121.505C121.398 172.184 121.291 172.227 121.185 172.312C121.099 172.397 121.057 172.493 121.057 172.6V174.808C121.057 174.915 121.099 175.011 121.185 175.096C121.291 175.181 121.398 175.224 121.505 175.224H124.609C124.715 175.224 124.811 175.181 124.897 175.096C125.003 175.011 125.057 174.915 125.057 174.808ZM137.26 177.528C137.26 177.933 137.111 178.285 136.812 178.584C136.535 178.861 136.194 179 135.788 179H134.988C134.007 179 133.164 178.659 132.46 177.976C131.756 177.272 131.404 176.419 131.404 175.416V158.84C131.404 158.413 131.543 158.061 131.82 157.784C132.119 157.507 132.471 157.368 132.876 157.368H133.772C134.178 157.368 134.519 157.507 134.796 157.784C135.095 158.061 135.244 158.413 135.244 158.84V174.808C135.244 175.085 135.372 175.224 135.628 175.224H135.788C136.194 175.224 136.535 175.363 136.812 175.64C137.111 175.917 137.26 176.269 137.26 176.696V177.528ZM145.604 177.528C145.604 177.933 145.455 178.285 145.156 178.584C144.879 178.861 144.537 179 144.132 179H143.332C142.351 179 141.508 178.659 140.804 177.976C140.1 177.272 139.748 176.419 139.748 175.416V158.84C139.748 158.413 139.887 158.061 140.164 157.784C140.463 157.507 140.815 157.368 141.22 157.368H142.116C142.521 157.368 142.863 157.507 143.14 157.784C143.439 158.061 143.588 158.413 143.588 158.84V174.808C143.588 175.085 143.716 175.224 143.972 175.224H144.132C144.537 175.224 144.879 175.363 145.156 175.64C145.455 175.917 145.604 176.269 145.604 176.696V177.528ZM159.708 169.496C159.708 170.136 159.548 170.733 159.228 171.288C158.908 171.821 158.481 172.259 157.948 172.6C157.414 172.92 156.817 173.08 156.156 173.08H152.38C152.273 173.08 152.166 173.123 152.06 173.208C151.974 173.272 151.932 173.357 151.932 173.464V174.808C151.932 174.915 151.974 175.011 152.06 175.096C152.166 175.181 152.273 175.224 152.38 175.224H156.156C156.561 175.224 156.902 175.363 157.18 175.64C157.478 175.917 157.628 176.269 157.628 176.696V177.528C157.628 177.933 157.478 178.285 157.18 178.584C156.902 178.861 156.561 179 156.156 179H151.708C150.726 179 149.884 178.659 149.18 177.976C148.476 177.272 148.124 176.419 148.124 175.416V166.008C148.124 165.347 148.284 164.749 148.604 164.216C148.945 163.683 149.382 163.256 149.916 162.936C150.449 162.595 151.046 162.424 151.708 162.424H156.156C156.817 162.424 157.414 162.595 157.948 162.936C158.481 163.256 158.908 163.683 159.228 164.216C159.548 164.749 159.708 165.347 159.708 166.008V169.496ZM155.932 168.856V166.68C155.932 166.552 155.878 166.445 155.772 166.36C155.686 166.275 155.59 166.232 155.484 166.232H152.38C152.273 166.232 152.166 166.275 152.06 166.36C151.974 166.445 151.932 166.552 151.932 166.68V168.856C151.932 168.941 151.974 169.027 152.06 169.112C152.166 169.197 152.273 169.24 152.38 169.24H155.484C155.59 169.24 155.686 169.197 155.772 169.112C155.878 169.027 155.932 168.941 155.932 168.856ZM171.815 164.792C171.815 165.197 171.677 165.539 171.399 165.816C171.122 166.093 170.781 166.232 170.375 166.232H166.567C166.29 166.232 166.151 166.381 166.151 166.68V177.528C166.151 177.933 166.002 178.285 165.703 178.584C165.426 178.861 165.085 179 164.679 179H163.783C163.378 179 163.037 178.861 162.759 178.584C162.482 178.285 162.343 177.933 162.343 177.528V166.008C162.343 165.347 162.503 164.749 162.823 164.216C163.143 163.661 163.57 163.224 164.103 162.904C164.637 162.584 165.234 162.424 165.895 162.424H170.375C170.781 162.424 171.122 162.573 171.399 162.872C171.677 163.149 171.815 163.501 171.815 163.928V164.792ZM185.125 164.28L180.741 181.112C180.506 181.987 180.026 182.701 179.301 183.256C178.576 183.832 177.744 184.12 176.805 184.12H175.909C175.504 184.12 175.152 183.971 174.853 183.672C174.576 183.395 174.437 183.053 174.437 182.648V181.752C174.437 181.347 174.576 181.005 174.853 180.728C175.152 180.451 175.504 180.312 175.909 180.312H176.805C176.933 180.312 177.018 180.248 177.061 180.12L177.765 177.368C177.829 177.197 177.829 177.016 177.765 176.824L174.501 164.28C174.33 163.789 174.416 163.373 174.757 163.032C175.034 162.627 175.408 162.424 175.877 162.424H176.805C177.146 162.424 177.445 162.531 177.701 162.744C177.957 162.936 178.128 163.203 178.213 163.544L179.653 169.016C179.674 169.101 179.728 169.144 179.813 169.144C179.898 169.144 179.952 169.101 179.973 169.016L181.413 163.544C181.52 163.203 181.69 162.936 181.925 162.744C182.181 162.531 182.469 162.424 182.789 162.424H183.717C184.208 162.424 184.592 162.627 184.869 163.032C185.189 163.373 185.274 163.789 185.125 164.28ZM208.852 159.48L198.836 178.232C198.558 178.744 198.132 179 197.556 179H196.564C196.009 179 195.593 178.765 195.316 178.296C195.06 177.827 195.049 177.336 195.284 176.824L205.3 158.136C205.577 157.624 206.004 157.368 206.58 157.368H207.572C208.126 157.368 208.542 157.603 208.82 158.072C209.097 158.52 209.108 158.989 208.852 159.48ZM129.309 223.528C129.309 223.933 129.159 224.285 128.861 224.584C128.583 224.861 128.253 225 127.869 225H116.861C116.477 225 116.135 224.861 115.837 224.584C115.559 224.285 115.421 223.933 115.421 223.528V204.84C115.421 204.413 115.559 204.061 115.837 203.784C116.135 203.507 116.477 203.368 116.861 203.368H127.869C128.253 203.368 128.583 203.507 128.861 203.784C129.159 204.061 129.309 204.413 129.309 204.84V205.704C129.309 206.109 129.159 206.461 128.861 206.76C128.583 207.037 128.253 207.176 127.869 207.176H119.613C119.357 207.176 119.229 207.315 119.229 207.592V211.848C119.229 212.147 119.357 212.296 119.613 212.296H126.717C127.143 212.296 127.495 212.435 127.773 212.712C128.05 212.989 128.189 213.331 128.189 213.736V214.632C128.189 215.037 128.05 215.389 127.773 215.688C127.495 215.965 127.143 216.104 126.717 216.104H119.613C119.357 216.104 119.229 216.232 119.229 216.488V220.808C119.229 221.085 119.357 221.224 119.613 221.224H127.869C128.253 221.224 128.583 221.363 128.861 221.64C129.159 221.917 129.309 222.269 129.309 222.696V223.528ZM142.45 210.568L139.57 216.392C139.421 216.627 139.421 216.872 139.57 217.128L142.418 222.888C142.674 223.379 142.653 223.848 142.354 224.296C142.077 224.765 141.671 225 141.138 225H140.146C139.549 225 139.111 224.733 138.834 224.2L137.426 221.352C137.405 221.288 137.341 221.256 137.234 221.256C137.149 221.256 137.085 221.288 137.042 221.352L135.666 224.2C135.389 224.733 134.941 225 134.322 225H133.33C132.797 225 132.391 224.765 132.114 224.296C131.837 223.848 131.815 223.379 132.05 222.888L134.93 217.128C135.037 216.872 135.037 216.616 134.93 216.36L132.018 210.568C131.783 210.077 131.805 209.597 132.082 209.128C132.381 208.659 132.797 208.424 133.33 208.424H134.322C134.621 208.424 134.877 208.509 135.09 208.68C135.325 208.829 135.506 209.021 135.634 209.256L137.042 212.136C137.085 212.2 137.149 212.232 137.234 212.232C137.341 212.232 137.405 212.2 137.426 212.136L138.866 209.256C138.994 209.021 139.165 208.829 139.378 208.68C139.613 208.509 139.869 208.424 140.146 208.424H141.138C141.65 208.424 142.066 208.659 142.386 209.128C142.663 209.597 142.685 210.077 142.45 210.568ZM154.675 223.528C154.675 223.933 154.536 224.285 154.259 224.584C153.981 224.861 153.64 225 153.235 225H148.755C147.773 225 146.931 224.659 146.227 223.976C145.544 223.272 145.203 222.419 145.203 221.416V204.84C145.203 204.413 145.341 204.061 145.619 203.784C145.896 203.507 146.237 203.368 146.643 203.368H147.539C147.944 203.368 148.285 203.507 148.563 203.784C148.861 204.061 149.011 204.413 149.011 204.84V208.04C149.011 208.296 149.149 208.424 149.427 208.424H153.235C153.64 208.424 153.981 208.573 154.259 208.872C154.536 209.149 154.675 209.501 154.675 209.928V210.792C154.675 211.155 154.536 211.496 154.259 211.816C153.939 212.093 153.597 212.232 153.235 212.232H149.427C149.149 212.232 149.011 212.381 149.011 212.68V220.808C149.011 221.085 149.149 221.224 149.427 221.224H153.235C153.64 221.224 153.981 221.363 154.259 221.64C154.536 221.917 154.675 222.269 154.675 222.696V223.528ZM166.768 210.792C166.768 211.197 166.63 211.539 166.352 211.816C166.075 212.093 165.734 212.232 165.328 212.232H161.52C161.243 212.232 161.104 212.381 161.104 212.68V223.528C161.104 223.933 160.955 224.285 160.656 224.584C160.379 224.861 160.038 225 159.632 225H158.736C158.331 225 157.99 224.861 157.712 224.584C157.435 224.285 157.296 223.933 157.296 223.528V212.008C157.296 211.347 157.456 210.749 157.776 210.216C158.096 209.661 158.523 209.224 159.056 208.904C159.59 208.584 160.187 208.424 160.848 208.424H165.328C165.734 208.424 166.075 208.573 166.352 208.872C166.63 209.149 166.768 209.501 166.768 209.928V210.792ZM179.348 221.416C179.348 222.419 178.996 223.272 178.292 223.976C177.61 224.659 176.778 225 175.796 225H171.348C170.367 225 169.524 224.659 168.82 223.976C168.116 223.272 167.764 222.419 167.764 221.416V217.928C167.764 217.267 167.924 216.68 168.244 216.168C168.586 215.635 169.023 215.208 169.556 214.888C170.09 214.568 170.687 214.408 171.348 214.408H175.124C175.231 214.408 175.327 214.365 175.412 214.28C175.519 214.195 175.572 214.088 175.572 213.96V212.68C175.572 212.552 175.519 212.445 175.412 212.36C175.327 212.275 175.231 212.232 175.124 212.232H171.348C170.943 212.232 170.591 212.093 170.292 211.816C170.015 211.539 169.876 211.197 169.876 210.792V209.928C169.876 209.501 170.015 209.149 170.292 208.872C170.591 208.573 170.943 208.424 171.348 208.424H175.796C176.458 208.424 177.055 208.584 177.588 208.904C178.122 209.224 178.548 209.661 178.868 210.216C179.188 210.749 179.348 211.347 179.348 212.008V221.416ZM175.572 220.808V218.6C175.572 218.493 175.519 218.397 175.412 218.312C175.327 218.227 175.231 218.184 175.124 218.184H172.02C171.914 218.184 171.807 218.227 171.7 218.312C171.615 218.397 171.572 218.493 171.572 218.6V220.808C171.572 220.915 171.615 221.011 171.7 221.096C171.807 221.181 171.914 221.224 172.02 221.224H175.124C175.231 221.224 175.327 221.181 175.412 221.096C175.519 221.011 175.572 220.915 175.572 220.808ZM193.536 221.416C193.536 222.419 193.184 223.272 192.48 223.976C191.797 224.659 190.965 225 189.984 225H185.536C184.555 225 183.712 224.659 183.008 223.976C182.304 223.272 181.952 222.419 181.952 221.416V220.104C181.952 219.699 182.091 219.357 182.368 219.08C182.667 218.781 183.019 218.632 183.424 218.632H184.32C184.725 218.632 185.067 218.781 185.344 219.08C185.621 219.357 185.76 219.699 185.76 220.104V220.808C185.76 221.085 185.909 221.224 186.208 221.224H189.312C189.419 221.224 189.515 221.181 189.6 221.096C189.707 221.011 189.76 220.915 189.76 220.808V219.624C189.76 219.453 189.675 219.336 189.504 219.272L184.864 217.8C184.011 217.501 183.307 216.989 182.752 216.264C182.219 215.539 181.952 214.717 181.952 213.8V212.008C181.952 211.347 182.112 210.749 182.432 210.216C182.773 209.683 183.211 209.256 183.744 208.936C184.277 208.595 184.875 208.424 185.536 208.424H189.984C190.645 208.424 191.243 208.595 191.776 208.936C192.309 209.256 192.736 209.683 193.056 210.216C193.376 210.749 193.536 211.347 193.536 212.008V213.288C193.536 213.693 193.397 214.045 193.12 214.344C192.843 214.621 192.501 214.76 192.096 214.76H191.2C190.795 214.76 190.453 214.621 190.176 214.344C189.899 214.045 189.76 213.693 189.76 213.288V212.68C189.76 212.552 189.707 212.445 189.6 212.36C189.515 212.275 189.419 212.232 189.312 212.232H186.208C185.909 212.232 185.76 212.381 185.76 212.68V213.8C185.76 214.013 185.845 214.141 186.016 214.184L190.656 215.656C191.531 215.933 192.224 216.435 192.736 217.16C193.269 217.885 193.536 218.707 193.536 219.624V221.416Z" fill="black"/>
</svg>
