<svg width="450" height="65" viewBox="0 0 450 65" fill="none" xmlns="http://www.w3.org/2000/svg">
<path d="M43.56 60.584C43.56 61.8 43.144 62.856 42.312 63.752C41.48 64.584 40.424 65 39.144 65H36.552C35.336 65 34.28 64.584 33.384 63.752C32.552 62.856 32.136 61.8 32.136 60.584V39.464C32.136 38.696 31.72 38.312 30.888 38.312H13.608C12.776 38.312 12.36 38.696 12.36 39.464V60.584C12.36 61.8 11.912 62.856 11.016 63.752C10.184 64.584 9.16 65 7.944 65H5.256C4.04 65 2.984 64.584 2.088 63.752C1.256 62.856 0.84 61.8 0.84 60.584V4.51999C0.84 3.24 1.256 2.184 2.088 1.352C2.984 0.519995 4.04 0.103994 5.256 0.103994H7.944C9.16 0.103994 10.184 0.519995 11.016 1.352C11.912 2.184 12.36 3.24 12.36 4.51999V25.544C12.36 26.44 12.776 26.888 13.608 26.888H30.888C31.72 26.888 32.136 26.44 32.136 25.544V4.51999C32.136 3.24 32.552 2.184 33.384 1.352C34.28 0.519995 35.336 0.103994 36.552 0.103994H39.144C40.424 0.103994 41.48 0.519995 42.312 1.352C43.144 2.184 43.56 3.24 43.56 4.51999V60.584ZM62.8913 60.584C62.8913 61.8 62.4433 62.856 61.5473 63.752C60.7153 64.584 59.6913 65 58.4753 65H55.8833C54.6673 65 53.6113 64.584 52.7153 63.752C51.8833 62.856 51.4673 61.8 51.4673 60.584V4.51999C51.4673 3.24 51.8833 2.184 52.7153 1.352C53.6113 0.519995 54.6673 0.103994 55.8833 0.103994H58.4753C59.6913 0.103994 60.7153 0.519995 61.5473 1.352C62.4433 2.184 62.8913 3.24 62.8913 4.51999V60.584ZM114.652 52.328C114.652 54.632 114.076 56.744 112.924 58.664C111.772 60.584 110.236 62.12 108.316 63.272C106.396 64.424 104.284 65 101.98 65H83.5478C81.2438 65 79.0998 64.424 77.1158 63.272C75.1958 62.12 73.6598 60.584 72.5078 58.664C71.3558 56.744 70.7798 54.632 70.7798 52.328V49.448C70.7798 48.232 71.1958 47.208 72.0278 46.376C72.9238 45.48 73.9798 45.032 75.1958 45.032H77.8838C79.0358 45.032 80.0278 45.48 80.8598 46.376C81.7558 47.208 82.2038 48.232 82.2038 49.448V52.328C82.2038 52.648 82.3318 52.968 82.5878 53.288C82.9078 53.544 83.2278 53.672 83.5478 53.672H101.98C102.3 53.672 102.588 53.544 102.844 53.288C103.1 52.968 103.228 52.648 103.228 52.328V43.592C103.228 42.888 102.908 42.44 102.268 42.248L79.2278 33.608C76.6678 32.712 74.6198 31.144 73.0838 28.904C71.5478 26.664 70.7798 24.2 70.7798 21.512V12.872C70.7798 10.504 71.3558 8.36 72.5078 6.44C73.6598 4.52 75.1958 2.984 77.1158 1.832C79.0998 0.679995 81.2438 0.103994 83.5478 0.103994H101.98C104.284 0.103994 106.396 0.679995 108.316 1.832C110.236 2.984 111.772 4.52 112.924 6.44C114.076 8.36 114.652 10.504 114.652 12.872V15.464C114.652 16.68 114.204 17.704 113.308 18.536C112.476 19.368 111.452 19.784 110.236 19.784H107.644C106.428 19.784 105.372 19.368 104.476 18.536C103.644 17.704 103.228 16.68 103.228 15.464V12.872C103.228 11.976 102.812 11.528 101.98 11.528H83.5478C83.2278 11.528 82.9078 11.656 82.5878 11.912C82.3318 12.168 82.2038 12.488 82.2038 12.872V21.512C82.2038 22.28 82.5238 22.76 83.1638 22.952L106.3 31.592C108.796 32.488 110.812 34.056 112.348 36.296C113.884 38.536 114.652 40.968 114.652 43.592V52.328ZM165.25 7.112C165.25 8.328 164.834 9.384 164.002 10.28C163.17 11.112 162.114 11.528 160.834 11.528H150.754C149.922 11.528 149.506 11.944 149.506 12.776V60.584C149.506 61.8 149.058 62.856 148.162 63.752C147.33 64.584 146.306 65 145.09 65H142.594C141.378 65 140.322 64.584 139.426 63.752C138.594 62.856 138.178 61.8 138.178 60.584V12.776C138.178 11.944 137.762 11.528 136.93 11.528H126.754C125.538 11.528 124.482 11.112 123.586 10.28C122.754 9.384 122.338 8.328 122.338 7.112V4.51999C122.338 3.24 122.754 2.184 123.586 1.352C124.482 0.519995 125.538 0.103994 126.754 0.103994H160.834C162.114 0.103994 163.17 0.519995 164.002 1.352C164.834 2.184 165.25 3.24 165.25 4.51999V7.112ZM216.933 52.328C216.933 54.632 216.357 56.744 215.205 58.664C214.053 60.584 212.517 62.12 210.597 63.272C208.677 64.424 206.565 65 204.261 65H185.829C183.525 65 181.381 64.424 179.397 63.272C177.477 62.12 175.941 60.584 174.789 58.664C173.637 56.744 173.061 54.632 173.061 52.328V12.872C173.061 10.504 173.637 8.36 174.789 6.44C175.941 4.52 177.477 2.984 179.397 1.832C181.381 0.679995 183.525 0.103994 185.829 0.103994H204.261C206.565 0.103994 208.677 0.679995 210.597 1.832C212.517 2.984 214.053 4.52 215.205 6.44C216.357 8.36 216.933 10.504 216.933 12.872V52.328ZM205.509 52.328V12.872C205.509 11.976 205.093 11.528 204.261 11.528H185.829C185.509 11.528 185.189 11.656 184.869 11.912C184.613 12.168 184.485 12.488 184.485 12.872V52.328C184.485 52.648 184.613 52.968 184.869 53.288C185.189 53.544 185.509 53.672 185.829 53.672H204.261C204.581 53.672 204.869 53.544 205.125 53.288C205.381 52.968 205.509 52.648 205.509 52.328ZM268.203 58.952C268.843 60.424 268.747 61.768 267.915 62.984C266.955 64.328 265.739 65 264.267 65H261.387C260.555 65 259.723 64.744 258.891 64.232C258.123 63.72 257.579 63.08 257.259 62.312L248.235 40.712C247.915 39.944 247.339 39.56 246.507 39.56H237.579C236.747 39.56 236.331 39.976 236.331 40.808V60.584C236.331 61.8 235.883 62.856 234.987 63.752C234.155 64.584 233.131 65 231.915 65H229.227C228.011 65 226.987 64.584 226.155 63.752C225.387 62.856 225.003 61.8 225.003 60.584V4.51999C225.003 3.24 225.387 2.184 226.155 1.352C226.987 0.519995 228.011 0.103994 229.227 0.103994H255.243C257.547 0.103994 259.659 0.679995 261.579 1.832C263.499 2.984 265.035 4.52 266.187 6.44C267.339 8.36 267.915 10.504 267.915 12.872V26.888C267.915 29.384 267.243 31.656 265.899 33.704C264.619 35.688 262.923 37.224 260.811 38.312C260.555 38.376 260.363 38.6 260.235 38.984C260.107 39.304 260.139 39.624 260.331 39.944L268.203 58.952ZM256.491 26.888V12.872C256.491 11.976 256.075 11.528 255.243 11.528H237.579C236.747 11.528 236.331 11.944 236.331 12.776V26.888C236.331 27.72 236.747 28.136 237.579 28.136H255.243C256.075 28.136 256.491 27.72 256.491 26.888ZM325.425 2.31199C326.193 3.78399 326.161 5.288 325.329 6.824L307.377 36.008C307.121 36.328 306.993 36.872 306.993 37.64V60.584C306.993 61.8 306.545 62.856 305.649 63.752C304.817 64.584 303.793 65 302.577 65H299.889C298.673 65 297.617 64.584 296.721 63.752C295.889 62.856 295.473 61.8 295.473 60.584V37.544C295.473 36.84 295.313 36.328 294.993 36.008L277.137 6.824C276.305 5.224 276.273 3.752 277.041 2.408C277.873 0.871996 279.153 0.103994 280.881 0.103994H283.953C285.681 0.103994 286.961 0.807995 287.793 2.216C288.497 3.304 289.553 5.032 290.961 7.4C292.369 9.768 293.937 12.36 295.665 15.176C297.393 17.928 299.025 20.552 300.561 23.048C300.689 23.304 300.881 23.432 301.137 23.432C301.457 23.432 301.713 23.304 301.905 23.048C303.633 20.232 305.329 17.48 306.993 14.792C308.657 12.04 310.161 9.576 311.505 7.4C312.913 5.16 313.969 3.432 314.673 2.216C315.505 0.807995 316.753 0.103994 318.417 0.103994H321.489C323.281 0.103994 324.593 0.839994 325.425 2.31199ZM399.746 52.328C399.746 54.632 399.17 56.744 398.018 58.664C396.866 60.584 395.33 62.12 393.41 63.272C391.49 64.424 389.378 65 387.074 65H368.642C366.338 65 364.194 64.424 362.21 63.272C360.29 62.12 358.754 60.584 357.602 58.664C356.45 56.744 355.874 54.632 355.874 52.328V12.872C355.874 10.504 356.45 8.36 357.602 6.44C358.754 4.52 360.29 2.984 362.21 1.832C364.194 0.679995 366.338 0.103994 368.642 0.103994H387.074C389.378 0.103994 391.49 0.679995 393.41 1.832C395.33 2.984 396.866 4.52 398.018 6.44C399.17 8.36 399.746 10.504 399.746 12.872V52.328ZM388.322 52.328V12.872C388.322 11.976 387.906 11.528 387.074 11.528H368.642C368.322 11.528 368.002 11.656 367.682 11.912C367.426 12.168 367.298 12.488 367.298 12.872V52.328C367.298 52.648 367.426 52.968 367.682 53.288C368.002 53.544 368.322 53.672 368.642 53.672H387.074C387.394 53.672 387.682 53.544 387.938 53.288C388.194 52.968 388.322 52.648 388.322 52.328ZM449.192 7.112C449.192 8.328 448.744 9.384 447.848 10.28C447.016 11.112 446.024 11.528 444.872 11.528H420.104C419.336 11.528 418.952 11.944 418.952 12.776V25.544C418.952 26.44 419.336 26.888 420.104 26.888H441.416C442.696 26.888 443.752 27.304 444.584 28.136C445.416 28.968 445.832 29.992 445.832 31.208V33.896C445.832 35.112 445.416 36.168 444.584 37.064C443.752 37.896 442.696 38.312 441.416 38.312H420.104C419.336 38.312 418.952 38.696 418.952 39.464V60.584C418.952 61.8 418.504 62.856 417.608 63.752C416.776 64.584 415.752 65 414.536 65H411.848C410.696 65 409.672 64.584 408.776 63.752C407.944 62.856 407.528 61.8 407.528 60.584V4.51999C407.528 3.24 407.944 2.184 408.776 1.352C409.672 0.519995 410.696 0.103994 411.848 0.103994H444.872C446.024 0.103994 447.016 0.519995 447.848 1.352C448.744 2.184 449.192 3.24 449.192 4.51999V7.112Z" fill="white"/>
</svg>
