<svg width="336" height="341" viewBox="0 0 336 341" fill="none" xmlns="http://www.w3.org/2000/svg">
<path d="M0.000149221 219.97C61.1648 119.029 158.974 75.6183 253.873 73.25C253.819 85.3433 254.007 224.016 254.029 260.978C209.054 263.879 180.929 284.592 161.947 313.47C131.636 295.97 0.000149221 219.97 0.000149221 219.97Z" fill="#EEBD31"/>
<path d="M156.287 177.528C156.287 177.933 156.148 178.285 155.871 178.584C155.594 178.861 155.242 179 154.815 179H153.951C153.546 179 153.194 178.861 152.895 178.584C152.618 178.285 152.479 177.933 152.479 177.528V167.896C152.479 167.811 152.436 167.757 152.351 167.736C152.287 167.715 152.234 167.736 152.191 167.8L149.119 174.136C149.055 174.307 148.916 174.456 148.703 174.584C148.49 174.712 148.287 174.819 148.095 174.904C147.924 174.968 147.839 175 147.839 175C147.178 175 146.74 174.712 146.527 174.136L143.455 167.8C143.434 167.736 143.38 167.715 143.295 167.736C143.21 167.757 143.167 167.811 143.167 167.896V177.528C143.167 177.933 143.018 178.285 142.719 178.584C142.442 178.861 142.1 179 141.695 179H140.799C140.394 179 140.042 178.861 139.743 178.584C139.466 178.285 139.327 177.933 139.327 177.528V158.84C139.327 158.413 139.466 158.061 139.743 157.784C140.042 157.507 140.394 157.368 140.799 157.368H141.727C142.324 157.368 142.762 157.645 143.039 158.2C143.146 158.435 143.359 158.893 143.679 159.576C144.02 160.237 144.415 161.027 144.863 161.944C145.311 162.861 145.77 163.832 146.239 164.856C146.73 165.859 147.199 166.819 147.647 167.736C147.69 167.821 147.743 167.864 147.807 167.864C147.892 167.864 147.956 167.821 147.999 167.736L152.575 158.2C152.852 157.645 153.3 157.368 153.919 157.368H154.815C155.242 157.368 155.594 157.507 155.871 157.784C156.148 158.061 156.287 158.413 156.287 158.84V177.528ZM169.609 164.28L165.225 181.112C164.991 181.987 164.511 182.701 163.785 183.256C163.06 183.832 162.228 184.12 161.289 184.12H160.393C159.988 184.12 159.636 183.971 159.337 183.672C159.06 183.395 158.921 183.053 158.921 182.648V181.752C158.921 181.347 159.06 181.005 159.337 180.728C159.636 180.451 159.988 180.312 160.393 180.312H161.289C161.417 180.312 161.503 180.248 161.545 180.12L162.249 177.368C162.313 177.197 162.313 177.016 162.249 176.824L158.985 164.28C158.815 163.789 158.9 163.373 159.241 163.032C159.519 162.627 159.892 162.424 160.361 162.424H161.289C161.631 162.424 161.929 162.531 162.185 162.744C162.441 162.936 162.612 163.203 162.697 163.544L164.137 169.016C164.159 169.101 164.212 169.144 164.297 169.144C164.383 169.144 164.436 169.101 164.457 169.016L165.897 163.544C166.004 163.203 166.175 162.936 166.409 162.744C166.665 162.531 166.953 162.424 167.273 162.424H168.201C168.692 162.424 169.076 162.627 169.353 163.032C169.673 163.373 169.759 163.789 169.609 164.28ZM95.3868 223.528C95.3868 223.933 95.2374 224.285 94.9388 224.584C94.6614 224.861 94.3308 225 93.9468 225H82.9388C82.5548 225 82.2134 224.861 81.9148 224.584C81.6374 224.285 81.4988 223.933 81.4988 223.528V204.84C81.4988 204.413 81.6374 204.061 81.9148 203.784C82.2134 203.507 82.5548 203.368 82.9388 203.368H93.9468C94.3308 203.368 94.6614 203.507 94.9388 203.784C95.2374 204.061 95.3868 204.413 95.3868 204.84V205.704C95.3868 206.109 95.2374 206.461 94.9388 206.76C94.6614 207.037 94.3308 207.176 93.9468 207.176H85.6908C85.4348 207.176 85.3068 207.315 85.3068 207.592V211.848C85.3068 212.147 85.4348 212.296 85.6908 212.296H92.7948C93.2214 212.296 93.5734 212.435 93.8508 212.712C94.1281 212.989 94.2668 213.331 94.2668 213.736V214.632C94.2668 215.037 94.1281 215.389 93.8508 215.688C93.5734 215.965 93.2214 216.104 92.7948 216.104H85.6908C85.4348 216.104 85.3068 216.232 85.3068 216.488V220.808C85.3068 221.085 85.4348 221.224 85.6908 221.224H93.9468C94.3308 221.224 94.6614 221.363 94.9388 221.64C95.2374 221.917 95.3868 222.269 95.3868 222.696V223.528ZM108.528 210.568L105.648 216.392C105.499 216.627 105.499 216.872 105.648 217.128L108.496 222.888C108.752 223.379 108.731 223.848 108.432 224.296C108.155 224.765 107.75 225 107.216 225H106.224C105.627 225 105.19 224.733 104.912 224.2L103.504 221.352C103.483 221.288 103.419 221.256 103.312 221.256C103.227 221.256 103.163 221.288 103.12 221.352L101.744 224.2C101.467 224.733 101.019 225 100.4 225H99.4083C98.8749 225 98.4696 224.765 98.1923 224.296C97.9149 223.848 97.8936 223.379 98.1283 222.888L101.008 217.128C101.115 216.872 101.115 216.616 101.008 216.36L98.0963 210.568C97.8616 210.077 97.8829 209.597 98.1603 209.128C98.4589 208.659 98.8749 208.424 99.4083 208.424H100.4C100.699 208.424 100.955 208.509 101.168 208.68C101.403 208.829 101.584 209.021 101.712 209.256L103.12 212.136C103.163 212.2 103.227 212.232 103.312 212.232C103.419 212.232 103.483 212.2 103.504 212.136L104.944 209.256C105.072 209.021 105.243 208.829 105.456 208.68C105.691 208.509 105.947 208.424 106.224 208.424H107.216C107.728 208.424 108.144 208.659 108.464 209.128C108.742 209.597 108.763 210.077 108.528 210.568ZM122.833 221.416C122.833 222.419 122.481 223.272 121.777 223.976C121.094 224.659 120.262 225 119.281 225H115.505C115.398 225 115.291 225.043 115.185 225.128C115.099 225.213 115.057 225.309 115.057 225.416V228.648C115.057 229.053 114.918 229.395 114.641 229.672C114.363 229.971 114.022 230.12 113.617 230.12H112.721C112.315 230.12 111.963 229.971 111.665 229.672C111.387 229.395 111.249 229.053 111.249 228.648V212.008C111.249 211.347 111.409 210.749 111.729 210.216C112.07 209.661 112.507 209.224 113.041 208.904C113.574 208.584 114.171 208.424 114.833 208.424H119.281C119.942 208.424 120.539 208.584 121.073 208.904C121.606 209.224 122.033 209.661 122.353 210.216C122.673 210.749 122.833 211.347 122.833 212.008V221.416ZM119.057 220.808V212.68C119.057 212.552 119.003 212.445 118.897 212.36C118.811 212.275 118.715 212.232 118.609 212.232H115.505C115.398 212.232 115.291 212.275 115.185 212.36C115.099 212.445 115.057 212.552 115.057 212.68V220.808C115.057 220.915 115.099 221.011 115.185 221.096C115.291 221.181 115.398 221.224 115.505 221.224H118.609C118.715 221.224 118.811 221.181 118.897 221.096C119.003 221.011 119.057 220.915 119.057 220.808ZM137.02 215.496C137.02 216.136 136.86 216.733 136.54 217.288C136.22 217.821 135.794 218.259 135.26 218.6C134.727 218.92 134.13 219.08 133.468 219.08H129.692C129.586 219.08 129.479 219.123 129.372 219.208C129.287 219.272 129.244 219.357 129.244 219.464V220.808C129.244 220.915 129.287 221.011 129.372 221.096C129.479 221.181 129.586 221.224 129.692 221.224H133.468C133.874 221.224 134.215 221.363 134.492 221.64C134.791 221.917 134.94 222.269 134.94 222.696V223.528C134.94 223.933 134.791 224.285 134.492 224.584C134.215 224.861 133.874 225 133.468 225H129.02C128.039 225 127.196 224.659 126.492 223.976C125.788 223.272 125.436 222.419 125.436 221.416V212.008C125.436 211.347 125.596 210.749 125.916 210.216C126.258 209.683 126.695 209.256 127.228 208.936C127.762 208.595 128.359 208.424 129.02 208.424H133.468C134.13 208.424 134.727 208.595 135.26 208.936C135.794 209.256 136.22 209.683 136.54 210.216C136.86 210.749 137.02 211.347 137.02 212.008V215.496ZM133.244 214.856V212.68C133.244 212.552 133.191 212.445 133.084 212.36C132.999 212.275 132.903 212.232 132.796 212.232H129.692C129.586 212.232 129.479 212.275 129.372 212.36C129.287 212.445 129.244 212.552 129.244 212.68V214.856C129.244 214.941 129.287 215.027 129.372 215.112C129.479 215.197 129.586 215.24 129.692 215.24H132.796C132.903 215.24 132.999 215.197 133.084 215.112C133.191 215.027 133.244 214.941 133.244 214.856ZM149.128 210.792C149.128 211.197 148.989 211.539 148.712 211.816C148.434 212.093 148.093 212.232 147.688 212.232H143.88C143.602 212.232 143.464 212.381 143.464 212.68V223.528C143.464 223.933 143.314 224.285 143.016 224.584C142.738 224.861 142.397 225 141.992 225H141.096C140.69 225 140.349 224.861 140.072 224.584C139.794 224.285 139.656 223.933 139.656 223.528V212.008C139.656 211.347 139.816 210.749 140.136 210.216C140.456 209.661 140.882 209.224 141.416 208.904C141.949 208.584 142.546 208.424 143.208 208.424H147.688C148.093 208.424 148.434 208.573 148.712 208.872C148.989 209.149 149.128 209.501 149.128 209.928V210.792ZM156.55 205.416C156.55 206.077 156.304 206.653 155.814 207.144C155.344 207.613 154.79 207.848 154.15 207.848C153.488 207.848 152.912 207.613 152.422 207.144C151.952 206.653 151.718 206.077 151.718 205.416C151.718 204.776 151.952 204.221 152.422 203.752C152.912 203.261 153.488 203.016 154.15 203.016C154.79 203.016 155.344 203.261 155.814 203.752C156.304 204.221 156.55 204.776 156.55 205.416ZM156.038 223.528C156.038 223.933 155.888 224.285 155.59 224.584C155.312 224.861 154.971 225 154.566 225H153.702C153.296 225 152.944 224.861 152.646 224.584C152.368 224.285 152.23 223.933 152.23 223.528V210.248C152.23 209.843 152.368 209.501 152.646 209.224C152.944 208.925 153.296 208.776 153.702 208.776H154.566C154.971 208.776 155.312 208.925 155.59 209.224C155.888 209.501 156.038 209.843 156.038 210.248V223.528ZM170.708 215.496C170.708 216.136 170.548 216.733 170.228 217.288C169.908 217.821 169.481 218.259 168.948 218.6C168.414 218.92 167.817 219.08 167.156 219.08H163.38C163.273 219.08 163.166 219.123 163.06 219.208C162.974 219.272 162.932 219.357 162.932 219.464V220.808C162.932 220.915 162.974 221.011 163.06 221.096C163.166 221.181 163.273 221.224 163.38 221.224H167.156C167.561 221.224 167.902 221.363 168.18 221.64C168.478 221.917 168.628 222.269 168.628 222.696V223.528C168.628 223.933 168.478 224.285 168.18 224.584C167.902 224.861 167.561 225 167.156 225H162.708C161.726 225 160.884 224.659 160.18 223.976C159.476 223.272 159.124 222.419 159.124 221.416V212.008C159.124 211.347 159.284 210.749 159.604 210.216C159.945 209.683 160.382 209.256 160.916 208.936C161.449 208.595 162.046 208.424 162.708 208.424H167.156C167.817 208.424 168.414 208.595 168.948 208.936C169.481 209.256 169.908 209.683 170.228 210.216C170.548 210.749 170.708 211.347 170.708 212.008V215.496ZM166.932 214.856V212.68C166.932 212.552 166.878 212.445 166.772 212.36C166.686 212.275 166.59 212.232 166.484 212.232H163.38C163.273 212.232 163.166 212.275 163.06 212.36C162.974 212.445 162.932 212.552 162.932 212.68V214.856C162.932 214.941 162.974 215.027 163.06 215.112C163.166 215.197 163.273 215.24 163.38 215.24H166.484C166.59 215.24 166.686 215.197 166.772 215.112C166.878 215.027 166.932 214.941 166.932 214.856ZM184.895 223.528C184.895 223.933 184.757 224.285 184.479 224.584C184.202 224.861 183.861 225 183.455 225H182.559C182.154 225 181.813 224.861 181.535 224.584C181.258 224.285 181.119 223.933 181.119 223.528V212.68C181.119 212.552 181.066 212.445 180.959 212.36C180.874 212.275 180.778 212.232 180.671 212.232H177.567C177.461 212.232 177.354 212.275 177.247 212.36C177.162 212.445 177.119 212.552 177.119 212.68V223.528C177.119 223.933 176.981 224.285 176.703 224.584C176.426 224.861 176.085 225 175.679 225H174.783C174.378 225 174.026 224.861 173.727 224.584C173.45 224.285 173.311 223.933 173.311 223.528V212.008C173.311 211.347 173.471 210.749 173.791 210.216C174.133 209.661 174.57 209.224 175.103 208.904C175.637 208.584 176.234 208.424 176.895 208.424H181.343C182.005 208.424 182.602 208.584 183.135 208.904C183.669 209.224 184.095 209.661 184.415 210.216C184.735 210.749 184.895 211.347 184.895 212.008V223.528ZM199.083 221.416C199.083 222.419 198.731 223.272 198.027 223.976C197.344 224.659 196.512 225 195.531 225H191.083C190.101 225 189.259 224.659 188.555 223.976C187.851 223.272 187.499 222.419 187.499 221.416V212.008C187.499 211.347 187.659 210.749 187.979 210.216C188.32 209.661 188.757 209.224 189.291 208.904C189.824 208.584 190.421 208.424 191.083 208.424H195.531C196.192 208.424 196.789 208.584 197.323 208.904C197.856 209.224 198.283 209.661 198.603 210.216C198.923 210.749 199.083 211.347 199.083 212.008V213.672C199.083 214.077 198.944 214.429 198.667 214.728C198.389 215.005 198.048 215.144 197.643 215.144H196.747C196.341 215.144 196 215.005 195.723 214.728C195.445 214.429 195.307 214.077 195.307 213.672V212.68C195.307 212.552 195.253 212.445 195.147 212.36C195.061 212.275 194.965 212.232 194.859 212.232H191.755C191.648 212.232 191.541 212.275 191.435 212.36C191.349 212.445 191.307 212.552 191.307 212.68V220.808C191.307 220.915 191.349 221.011 191.435 221.096C191.541 221.181 191.648 221.224 191.755 221.224H194.859C194.965 221.224 195.061 221.181 195.147 221.096C195.253 221.011 195.307 220.915 195.307 220.808V219.816C195.307 219.411 195.445 219.069 195.723 218.792C196 218.493 196.341 218.344 196.747 218.344H197.643C198.048 218.344 198.389 218.493 198.667 218.792C198.944 219.069 199.083 219.411 199.083 219.816V221.416ZM213.27 215.496C213.27 216.136 213.11 216.733 212.79 217.288C212.47 217.821 212.044 218.259 211.51 218.6C210.977 218.92 210.38 219.08 209.718 219.08H205.942C205.836 219.08 205.729 219.123 205.622 219.208C205.537 219.272 205.494 219.357 205.494 219.464V220.808C205.494 220.915 205.537 221.011 205.622 221.096C205.729 221.181 205.836 221.224 205.942 221.224H209.718C210.124 221.224 210.465 221.363 210.742 221.64C211.041 221.917 211.19 222.269 211.19 222.696V223.528C211.19 223.933 211.041 224.285 210.742 224.584C210.465 224.861 210.124 225 209.718 225H205.27C204.289 225 203.446 224.659 202.742 223.976C202.038 223.272 201.686 222.419 201.686 221.416V212.008C201.686 211.347 201.846 210.749 202.166 210.216C202.508 209.683 202.945 209.256 203.478 208.936C204.012 208.595 204.609 208.424 205.27 208.424H209.718C210.38 208.424 210.977 208.595 211.51 208.936C212.044 209.256 212.47 209.683 212.79 210.216C213.11 210.749 213.27 211.347 213.27 212.008V215.496ZM209.494 214.856V212.68C209.494 212.552 209.441 212.445 209.334 212.36C209.249 212.275 209.153 212.232 209.046 212.232H205.942C205.836 212.232 205.729 212.275 205.622 212.36C205.537 212.445 205.494 212.552 205.494 212.68V214.856C205.494 214.941 205.537 215.027 205.622 215.112C205.729 215.197 205.836 215.24 205.942 215.24H209.046C209.153 215.24 209.249 215.197 209.334 215.112C209.441 215.027 209.494 214.941 209.494 214.856ZM227.458 221.416C227.458 222.419 227.106 223.272 226.402 223.976C225.719 224.659 224.887 225 223.906 225H219.458C218.476 225 217.634 224.659 216.93 223.976C216.226 223.272 215.874 222.419 215.874 221.416V220.104C215.874 219.699 216.012 219.357 216.29 219.08C216.588 218.781 216.94 218.632 217.346 218.632H218.242C218.647 218.632 218.988 218.781 219.266 219.08C219.543 219.357 219.682 219.699 219.682 220.104V220.808C219.682 221.085 219.831 221.224 220.13 221.224H223.234C223.34 221.224 223.436 221.181 223.522 221.096C223.628 221.011 223.682 220.915 223.682 220.808V219.624C223.682 219.453 223.596 219.336 223.426 219.272L218.786 217.8C217.932 217.501 217.228 216.989 216.674 216.264C216.14 215.539 215.874 214.717 215.874 213.8V212.008C215.874 211.347 216.034 210.749 216.354 210.216C216.695 209.683 217.132 209.256 217.666 208.936C218.199 208.595 218.796 208.424 219.458 208.424H223.906C224.567 208.424 225.164 208.595 225.698 208.936C226.231 209.256 226.658 209.683 226.978 210.216C227.298 210.749 227.458 211.347 227.458 212.008V213.288C227.458 213.693 227.319 214.045 227.042 214.344C226.764 214.621 226.423 214.76 226.018 214.76H225.122C224.716 214.76 224.375 214.621 224.098 214.344C223.82 214.045 223.682 213.693 223.682 213.288V212.68C223.682 212.552 223.628 212.445 223.522 212.36C223.436 212.275 223.34 212.232 223.234 212.232H220.13C219.831 212.232 219.682 212.381 219.682 212.68V213.8C219.682 214.013 219.767 214.141 219.938 214.184L224.578 215.656C225.452 215.933 226.146 216.435 226.658 217.16C227.191 217.885 227.458 218.707 227.458 219.624V221.416Z" fill="black"/>
</svg>
