<svg width="336" height="341" viewBox="0 0 336 341" fill="none" xmlns="http://www.w3.org/2000/svg">
<path d="M208.279 0.000258458C265.114 103.441 253.804 209.852 208.406 293.22C197.96 287.127 77.7713 217.954 45.7502 199.492C65.726 159.091 61.8504 124.378 46.3325 93.5003C76.6431 75.9997 208.279 0.000258458 208.279 0.000258458Z" fill="#544C9B"/>
<path d="M122.639 134.776C122.639 135.544 122.447 136.248 122.063 136.888C121.679 137.528 121.167 138.04 120.527 138.424C119.887 138.808 119.183 139 118.415 139H112.271C111.503 139 110.788 138.808 110.127 138.424C109.487 138.04 108.975 137.528 108.591 136.888C108.207 136.248 108.015 135.544 108.015 134.776V121.624C108.015 120.835 108.207 120.12 108.591 119.48C108.975 118.84 109.487 118.328 110.127 117.944C110.788 117.56 111.503 117.368 112.271 117.368H118.415C119.183 117.368 119.887 117.56 120.527 117.944C121.167 118.328 121.679 118.84 122.063 119.48C122.447 120.12 122.639 120.835 122.639 121.624V134.776ZM118.831 134.776V121.624C118.831 121.325 118.692 121.176 118.415 121.176H112.271C112.164 121.176 112.058 121.219 111.951 121.304C111.866 121.389 111.823 121.496 111.823 121.624V134.776C111.823 134.883 111.866 134.989 111.951 135.096C112.058 135.181 112.164 135.224 112.271 135.224H118.415C118.522 135.224 118.618 135.181 118.703 135.096C118.788 134.989 118.831 134.883 118.831 134.776ZM136.817 135.416C136.817 136.419 136.465 137.272 135.761 137.976C135.078 138.659 134.246 139 133.265 139H129.489C129.382 139 129.276 139.043 129.169 139.128C129.084 139.213 129.041 139.309 129.041 139.416V142.648C129.041 143.053 128.902 143.395 128.625 143.672C128.348 143.971 128.006 144.12 127.601 144.12H126.705C126.3 144.12 125.948 143.971 125.649 143.672C125.372 143.395 125.233 143.053 125.233 142.648V126.008C125.233 125.347 125.393 124.749 125.713 124.216C126.054 123.661 126.492 123.224 127.025 122.904C127.558 122.584 128.156 122.424 128.817 122.424H133.265C133.926 122.424 134.524 122.584 135.057 122.904C135.59 123.224 136.017 123.661 136.337 124.216C136.657 124.749 136.817 125.347 136.817 126.008V135.416ZM133.041 134.808V126.68C133.041 126.552 132.988 126.445 132.881 126.36C132.796 126.275 132.7 126.232 132.593 126.232H129.489C129.382 126.232 129.276 126.275 129.169 126.36C129.084 126.445 129.041 126.552 129.041 126.68V134.808C129.041 134.915 129.084 135.011 129.169 135.096C129.276 135.181 129.382 135.224 129.489 135.224H132.593C132.7 135.224 132.796 135.181 132.881 135.096C132.988 135.011 133.041 134.915 133.041 134.808ZM151.005 129.496C151.005 130.136 150.845 130.733 150.525 131.288C150.205 131.821 149.778 132.259 149.245 132.6C148.711 132.92 148.114 133.08 147.453 133.08H143.677C143.57 133.08 143.463 133.123 143.357 133.208C143.271 133.272 143.229 133.357 143.229 133.464V134.808C143.229 134.915 143.271 135.011 143.357 135.096C143.463 135.181 143.57 135.224 143.677 135.224H147.453C147.858 135.224 148.199 135.363 148.477 135.64C148.775 135.917 148.925 136.269 148.925 136.696V137.528C148.925 137.933 148.775 138.285 148.477 138.584C148.199 138.861 147.858 139 147.453 139H143.005C142.023 139 141.181 138.659 140.477 137.976C139.773 137.272 139.421 136.419 139.421 135.416V126.008C139.421 125.347 139.581 124.749 139.901 124.216C140.242 123.683 140.679 123.256 141.213 122.936C141.746 122.595 142.343 122.424 143.005 122.424H147.453C148.114 122.424 148.711 122.595 149.245 122.936C149.778 123.256 150.205 123.683 150.525 124.216C150.845 124.749 151.005 125.347 151.005 126.008V129.496ZM147.229 128.856V126.68C147.229 126.552 147.175 126.445 147.069 126.36C146.983 126.275 146.887 126.232 146.781 126.232H143.677C143.57 126.232 143.463 126.275 143.357 126.36C143.271 126.445 143.229 126.552 143.229 126.68V128.856C143.229 128.941 143.271 129.027 143.357 129.112C143.463 129.197 143.57 129.24 143.677 129.24H146.781C146.887 129.24 146.983 129.197 147.069 129.112C147.175 129.027 147.229 128.941 147.229 128.856ZM165.192 137.528C165.192 137.933 165.053 138.285 164.776 138.584C164.499 138.861 164.157 139 163.752 139H162.856C162.451 139 162.109 138.861 161.832 138.584C161.555 138.285 161.416 137.933 161.416 137.528V126.68C161.416 126.552 161.363 126.445 161.256 126.36C161.171 126.275 161.075 126.232 160.968 126.232H157.864C157.757 126.232 157.651 126.275 157.544 126.36C157.459 126.445 157.416 126.552 157.416 126.68V137.528C157.416 137.933 157.277 138.285 157 138.584C156.723 138.861 156.381 139 155.976 139H155.08C154.675 139 154.323 138.861 154.024 138.584C153.747 138.285 153.608 137.933 153.608 137.528V126.008C153.608 125.347 153.768 124.749 154.088 124.216C154.429 123.661 154.867 123.224 155.4 122.904C155.933 122.584 156.531 122.424 157.192 122.424H161.64C162.301 122.424 162.899 122.584 163.432 122.904C163.965 123.224 164.392 123.661 164.712 124.216C165.032 124.749 165.192 125.347 165.192 126.008V137.528ZM172.628 119.416C172.628 120.077 172.382 120.653 171.892 121.144C171.422 121.613 170.868 121.848 170.228 121.848C169.566 121.848 168.99 121.613 168.5 121.144C168.03 120.653 167.796 120.077 167.796 119.416C167.796 118.776 168.03 118.221 168.5 117.752C168.99 117.261 169.566 117.016 170.228 117.016C170.868 117.016 171.422 117.261 171.892 117.752C172.382 118.221 172.628 118.776 172.628 119.416ZM172.116 137.528C172.116 137.933 171.966 138.285 171.668 138.584C171.39 138.861 171.049 139 170.644 139H169.78C169.374 139 169.022 138.861 168.724 138.584C168.446 138.285 168.308 137.933 168.308 137.528V124.248C168.308 123.843 168.446 123.501 168.724 123.224C169.022 122.925 169.374 122.776 169.78 122.776H170.644C171.049 122.776 171.39 122.925 171.668 123.224C171.966 123.501 172.116 123.843 172.116 124.248V137.528ZM186.786 137.528C186.786 137.933 186.647 138.285 186.37 138.584C186.093 138.861 185.751 139 185.346 139H184.45C184.045 139 183.703 138.861 183.426 138.584C183.149 138.285 183.01 137.933 183.01 137.528V126.68C183.01 126.552 182.957 126.445 182.85 126.36C182.765 126.275 182.669 126.232 182.562 126.232H179.458C179.351 126.232 179.245 126.275 179.138 126.36C179.053 126.445 179.01 126.552 179.01 126.68V137.528C179.01 137.933 178.871 138.285 178.594 138.584C178.317 138.861 177.975 139 177.57 139H176.674C176.269 139 175.917 138.861 175.618 138.584C175.341 138.285 175.202 137.933 175.202 137.528V126.008C175.202 125.347 175.362 124.749 175.682 124.216C176.023 123.661 176.461 123.224 176.994 122.904C177.527 122.584 178.125 122.424 178.786 122.424H183.234C183.895 122.424 184.493 122.584 185.026 122.904C185.559 123.224 185.986 123.661 186.306 124.216C186.626 124.749 186.786 125.347 186.786 126.008V137.528ZM200.973 140.536C200.973 141.176 200.813 141.763 200.493 142.296C200.173 142.851 199.747 143.288 199.213 143.608C198.68 143.949 198.083 144.12 197.421 144.12H192.973C192.568 144.12 192.216 143.971 191.917 143.672C191.64 143.395 191.501 143.053 191.501 142.648V141.752C191.501 141.347 191.64 141.005 191.917 140.728C192.216 140.451 192.568 140.312 192.973 140.312H196.749C196.856 140.312 196.952 140.269 197.037 140.184C197.144 140.099 197.197 140.003 197.197 139.896V139.416C197.197 139.309 197.144 139.213 197.037 139.128C196.952 139.043 196.856 139 196.749 139H192.973C191.992 139 191.149 138.659 190.445 137.976C189.741 137.272 189.389 136.419 189.389 135.416V126.008C189.389 125.347 189.549 124.749 189.869 124.216C190.211 123.661 190.648 123.224 191.181 122.904C191.715 122.584 192.312 122.424 192.973 122.424H197.421C198.083 122.424 198.68 122.584 199.213 122.904C199.747 123.224 200.173 123.661 200.493 124.216C200.813 124.749 200.973 125.347 200.973 126.008V140.536ZM197.197 134.808V126.68C197.197 126.552 197.144 126.445 197.037 126.36C196.952 126.275 196.856 126.232 196.749 126.232H193.645C193.539 126.232 193.432 126.275 193.325 126.36C193.24 126.445 193.197 126.552 193.197 126.68V134.808C193.197 134.915 193.24 135.011 193.325 135.096C193.432 135.181 193.539 135.224 193.645 135.224H196.749C196.856 135.224 196.952 135.181 197.037 135.096C197.144 135.011 197.197 134.915 197.197 134.808ZM136.194 164.104C136.45 164.595 136.439 165.096 136.162 165.608L130.178 175.336C130.092 175.443 130.05 175.624 130.05 175.88V183.528C130.05 183.933 129.9 184.285 129.602 184.584C129.324 184.861 128.983 185 128.578 185H127.682C127.276 185 126.924 184.861 126.626 184.584C126.348 184.285 126.21 183.933 126.21 183.528V175.848C126.21 175.613 126.156 175.443 126.05 175.336L120.098 165.608C119.82 165.075 119.81 164.584 120.066 164.136C120.343 163.624 120.77 163.368 121.346 163.368H122.37C122.946 163.368 123.372 163.603 123.65 164.072C123.884 164.435 124.236 165.011 124.706 165.8C125.175 166.589 125.698 167.453 126.274 168.392C126.85 169.309 127.394 170.184 127.906 171.016C127.948 171.101 128.012 171.144 128.098 171.144C128.204 171.144 128.29 171.101 128.354 171.016C128.93 170.077 129.495 169.16 130.05 168.264C130.604 167.347 131.106 166.525 131.554 165.8C132.023 165.053 132.375 164.477 132.61 164.072C132.887 163.603 133.303 163.368 133.858 163.368H134.882C135.479 163.368 135.916 163.613 136.194 164.104ZM148.927 175.496C148.927 176.136 148.767 176.733 148.447 177.288C148.127 177.821 147.7 178.259 147.167 178.6C146.633 178.92 146.036 179.08 145.375 179.08H141.599C141.492 179.08 141.385 179.123 141.279 179.208C141.193 179.272 141.151 179.357 141.151 179.464V180.808C141.151 180.915 141.193 181.011 141.279 181.096C141.385 181.181 141.492 181.224 141.599 181.224H145.375C145.78 181.224 146.121 181.363 146.399 181.64C146.697 181.917 146.847 182.269 146.847 182.696V183.528C146.847 183.933 146.697 184.285 146.399 184.584C146.121 184.861 145.78 185 145.375 185H140.927C139.945 185 139.103 184.659 138.399 183.976C137.695 183.272 137.343 182.419 137.343 181.416V172.008C137.343 171.347 137.503 170.749 137.823 170.216C138.164 169.683 138.601 169.256 139.135 168.936C139.668 168.595 140.265 168.424 140.927 168.424H145.375C146.036 168.424 146.633 168.595 147.167 168.936C147.7 169.256 148.127 169.683 148.447 170.216C148.767 170.749 148.927 171.347 148.927 172.008V175.496ZM145.151 174.856V172.68C145.151 172.552 145.097 172.445 144.991 172.36C144.905 172.275 144.809 172.232 144.703 172.232H141.599C141.492 172.232 141.385 172.275 141.279 172.36C141.193 172.445 141.151 172.552 141.151 172.68V174.856C141.151 174.941 141.193 175.027 141.279 175.112C141.385 175.197 141.492 175.24 141.599 175.24H144.703C144.809 175.24 144.905 175.197 144.991 175.112C145.097 175.027 145.151 174.941 145.151 174.856ZM163.114 181.416C163.114 182.419 162.762 183.272 162.058 183.976C161.375 184.659 160.543 185 159.562 185H155.114C154.133 185 153.29 184.659 152.586 183.976C151.882 183.272 151.53 182.419 151.53 181.416V177.928C151.53 177.267 151.69 176.68 152.01 176.168C152.351 175.635 152.789 175.208 153.322 174.888C153.855 174.568 154.453 174.408 155.114 174.408H158.89C158.997 174.408 159.093 174.365 159.178 174.28C159.285 174.195 159.338 174.088 159.338 173.96V172.68C159.338 172.552 159.285 172.445 159.178 172.36C159.093 172.275 158.997 172.232 158.89 172.232H155.114C154.709 172.232 154.357 172.093 154.058 171.816C153.781 171.539 153.642 171.197 153.642 170.792V169.928C153.642 169.501 153.781 169.149 154.058 168.872C154.357 168.573 154.709 168.424 155.114 168.424H159.562C160.223 168.424 160.821 168.584 161.354 168.904C161.887 169.224 162.314 169.661 162.634 170.216C162.954 170.749 163.114 171.347 163.114 172.008V181.416ZM159.338 180.808V178.6C159.338 178.493 159.285 178.397 159.178 178.312C159.093 178.227 158.997 178.184 158.89 178.184H155.786C155.679 178.184 155.573 178.227 155.466 178.312C155.381 178.397 155.338 178.493 155.338 178.6V180.808C155.338 180.915 155.381 181.011 155.466 181.096C155.573 181.181 155.679 181.224 155.786 181.224H158.89C158.997 181.224 159.093 181.181 159.178 181.096C159.285 181.011 159.338 180.915 159.338 180.808ZM175.222 170.792C175.222 171.197 175.083 171.539 174.806 171.816C174.528 172.093 174.187 172.232 173.782 172.232H169.974C169.696 172.232 169.558 172.381 169.558 172.68V183.528C169.558 183.933 169.408 184.285 169.11 184.584C168.832 184.861 168.491 185 168.086 185H167.19C166.784 185 166.443 184.861 166.166 184.584C165.888 184.285 165.75 183.933 165.75 183.528V172.008C165.75 171.347 165.91 170.749 166.23 170.216C166.55 169.661 166.976 169.224 167.51 168.904C168.043 168.584 168.64 168.424 169.302 168.424H173.782C174.187 168.424 174.528 168.573 174.806 168.872C175.083 169.149 175.222 169.501 175.222 169.928V170.792ZM189.083 181.416C189.083 182.419 188.731 183.272 188.027 183.976C187.344 184.659 186.512 185 185.531 185H181.083C180.101 185 179.259 184.659 178.555 183.976C177.851 183.272 177.499 182.419 177.499 181.416V180.104C177.499 179.699 177.637 179.357 177.915 179.08C178.213 178.781 178.565 178.632 178.971 178.632H179.867C180.272 178.632 180.613 178.781 180.891 179.08C181.168 179.357 181.307 179.699 181.307 180.104V180.808C181.307 181.085 181.456 181.224 181.755 181.224H184.859C184.965 181.224 185.061 181.181 185.147 181.096C185.253 181.011 185.307 180.915 185.307 180.808V179.624C185.307 179.453 185.221 179.336 185.051 179.272L180.411 177.8C179.557 177.501 178.853 176.989 178.299 176.264C177.765 175.539 177.499 174.717 177.499 173.8V172.008C177.499 171.347 177.659 170.749 177.979 170.216C178.32 169.683 178.757 169.256 179.291 168.936C179.824 168.595 180.421 168.424 181.083 168.424H185.531C186.192 168.424 186.789 168.595 187.323 168.936C187.856 169.256 188.283 169.683 188.603 170.216C188.923 170.749 189.083 171.347 189.083 172.008V173.288C189.083 173.693 188.944 174.045 188.667 174.344C188.389 174.621 188.048 174.76 187.643 174.76H186.747C186.341 174.76 186 174.621 185.723 174.344C185.445 174.045 185.307 173.693 185.307 173.288V172.68C185.307 172.552 185.253 172.445 185.147 172.36C185.061 172.275 184.965 172.232 184.859 172.232H181.755C181.456 172.232 181.307 172.381 181.307 172.68V173.8C181.307 174.013 181.392 174.141 181.563 174.184L186.203 175.656C187.077 175.933 187.771 176.435 188.283 177.16C188.816 177.885 189.083 178.707 189.083 179.624V181.416Z" fill="black"/>
</svg>
