<svg width="254" height="241" viewBox="0 0 254 241" fill="none" xmlns="http://www.w3.org/2000/svg">
<path d="M0.000725687 0C118 2.5 204.5 65.5 254 146.5C243.5 152.5 123.5 222 91.5009 240.5C66.501 203 34.5007 189 0.000725687 187C5.41946e-05 152 0.000725687 0 0.000725687 0Z" fill="#DDDDDD"/>
<path d="M88.4426 59.704C88.4426 60.1093 88.304 60.4613 88.0266 60.76C87.7493 61.0373 87.3973 61.176 86.9706 61.176H83.6106C83.3333 61.176 83.1946 61.3147 83.1946 61.592V77.528C83.1946 77.9333 83.0453 78.2853 82.7466 78.584C82.4693 78.8613 82.128 79 81.7226 79H80.8906C80.4853 79 80.1333 78.8613 79.8346 78.584C79.5573 78.2853 79.4186 77.9333 79.4186 77.528V61.592C79.4186 61.3147 79.28 61.176 79.0026 61.176H75.6106C75.2053 61.176 74.8533 61.0373 74.5546 60.76C74.2773 60.4613 74.1386 60.1093 74.1386 59.704V58.84C74.1386 58.4133 74.2773 58.0613 74.5546 57.784C74.8533 57.5067 75.2053 57.368 75.6106 57.368H86.9706C87.3973 57.368 87.7493 57.5067 88.0266 57.784C88.304 58.0613 88.4426 58.4133 88.4426 58.84V59.704ZM102.598 77.528C102.598 77.9333 102.46 78.2853 102.182 78.584C101.905 78.8613 101.564 79 101.158 79H100.262C99.857 79 99.5157 78.8613 99.2384 78.584C98.961 78.2853 98.8224 77.9333 98.8224 77.528V66.68C98.8224 66.552 98.769 66.4453 98.6624 66.36C98.577 66.2747 98.481 66.232 98.3744 66.232H95.2704C95.1637 66.232 95.057 66.2747 94.9504 66.36C94.865 66.4453 94.8224 66.552 94.8224 66.68V77.528C94.8224 77.9333 94.6837 78.2853 94.4064 78.584C94.129 78.8613 93.7877 79 93.3824 79H92.4864C92.081 79 91.729 78.8613 91.4304 78.584C91.153 78.2853 91.0144 77.9333 91.0144 77.528V58.84C91.0144 58.4133 91.153 58.0613 91.4304 57.784C91.729 57.5067 92.081 57.368 92.4864 57.368H93.3824C93.7877 57.368 94.129 57.5067 94.4064 57.784C94.6837 58.0613 94.8224 58.4133 94.8224 58.84V62.04C94.8224 62.1467 94.865 62.2427 94.9504 62.328C95.057 62.392 95.1637 62.424 95.2704 62.424H99.0464C99.7077 62.424 100.305 62.584 100.838 62.904C101.372 63.224 101.798 63.6613 102.118 64.216C102.438 64.7493 102.598 65.3467 102.598 66.008V77.528ZM116.786 69.496C116.786 70.136 116.626 70.7333 116.306 71.288C115.986 71.8213 115.559 72.2587 115.026 72.6C114.493 72.92 113.895 73.08 113.234 73.08H109.458C109.351 73.08 109.245 73.1227 109.138 73.208C109.053 73.272 109.01 73.3573 109.01 73.464V74.808C109.01 74.9147 109.053 75.0107 109.138 75.096C109.245 75.1813 109.351 75.224 109.458 75.224H113.234C113.639 75.224 113.981 75.3627 114.258 75.64C114.557 75.9173 114.706 76.2693 114.706 76.696V77.528C114.706 77.9333 114.557 78.2853 114.258 78.584C113.981 78.8613 113.639 79 113.234 79H108.786C107.805 79 106.962 78.6587 106.258 77.976C105.554 77.272 105.202 76.4187 105.202 75.416V66.008C105.202 65.3467 105.362 64.7493 105.682 64.216C106.023 63.6827 106.461 63.256 106.994 62.936C107.527 62.5947 108.125 62.424 108.786 62.424H113.234C113.895 62.424 114.493 62.5947 115.026 62.936C115.559 63.256 115.986 63.6827 116.306 64.216C116.626 64.7493 116.786 65.3467 116.786 66.008V69.496ZM113.01 68.856V66.68C113.01 66.552 112.957 66.4453 112.85 66.36C112.765 66.2747 112.669 66.232 112.562 66.232H109.458C109.351 66.232 109.245 66.2747 109.138 66.36C109.053 66.4453 109.01 66.552 109.01 66.68V68.856C109.01 68.9413 109.053 69.0267 109.138 69.112C109.245 69.1973 109.351 69.24 109.458 69.24H112.562C112.669 69.24 112.765 69.1973 112.85 69.112C112.957 69.0267 113.01 68.9413 113.01 68.856ZM63.9048 120.776C63.9048 121.544 63.7128 122.248 63.3288 122.888C62.9448 123.528 62.4328 124.04 61.7928 124.424C61.1528 124.808 60.4488 125 59.6808 125H53.5368C52.7688 125 52.0541 124.808 51.3928 124.424C50.7528 124.04 50.2408 123.528 49.8568 122.888C49.4728 122.248 49.2808 121.544 49.2808 120.776V107.624C49.2808 106.835 49.4728 106.12 49.8568 105.48C50.2408 104.84 50.7528 104.328 51.3928 103.944C52.0541 103.56 52.7688 103.368 53.5368 103.368H59.6808C60.4488 103.368 61.1528 103.56 61.7928 103.944C62.4328 104.328 62.9448 104.84 63.3288 105.48C63.7128 106.12 63.9048 106.835 63.9048 107.624V120.776ZM60.0968 120.776V107.624C60.0968 107.325 59.9581 107.176 59.6808 107.176H53.5368C53.4301 107.176 53.3234 107.219 53.2168 107.304C53.1314 107.389 53.0888 107.496 53.0888 107.624V120.776C53.0888 120.883 53.1314 120.989 53.2168 121.096C53.3234 121.181 53.4301 121.224 53.5368 121.224H59.6808C59.7874 121.224 59.8834 121.181 59.9688 121.096C60.0541 120.989 60.0968 120.883 60.0968 120.776ZM76.0028 110.792C76.0028 111.197 75.8641 111.539 75.5868 111.816C75.3094 112.093 74.9681 112.232 74.5628 112.232H70.7548C70.4774 112.232 70.3388 112.381 70.3388 112.68V123.528C70.3388 123.933 70.1894 124.285 69.8908 124.584C69.6134 124.861 69.2721 125 68.8668 125H67.9708C67.5654 125 67.2241 124.861 66.9468 124.584C66.6694 124.285 66.5308 123.933 66.5308 123.528V112.008C66.5308 111.347 66.6908 110.749 67.0108 110.216C67.3308 109.661 67.7574 109.224 68.2908 108.904C68.8241 108.584 69.4214 108.424 70.0828 108.424H74.5628C74.9681 108.424 75.3094 108.573 75.5868 108.872C75.8641 109.149 76.0028 109.501 76.0028 109.928V110.792ZM83.4245 105.416C83.4245 106.077 83.1792 106.653 82.6885 107.144C82.2192 107.613 81.6645 107.848 81.0245 107.848C80.3632 107.848 79.7872 107.613 79.2965 107.144C78.8272 106.653 78.5925 106.077 78.5925 105.416C78.5925 104.776 78.8272 104.221 79.2965 103.752C79.7872 103.261 80.3632 103.016 81.0245 103.016C81.6645 103.016 82.2192 103.261 82.6885 103.752C83.1792 104.221 83.4245 104.776 83.4245 105.416ZM82.9125 123.528C82.9125 123.933 82.7632 124.285 82.4645 124.584C82.1872 124.861 81.8458 125 81.4405 125H80.5765C80.1712 125 79.8192 124.861 79.5205 124.584C79.2432 124.285 79.1045 123.933 79.1045 123.528V110.248C79.1045 109.843 79.2432 109.501 79.5205 109.224C79.8192 108.925 80.1712 108.776 80.5765 108.776H81.4405C81.8458 108.776 82.1872 108.925 82.4645 109.224C82.7632 109.501 82.9125 109.843 82.9125 110.248V123.528ZM97.5828 126.536C97.5828 127.176 97.4228 127.763 97.1028 128.296C96.7828 128.851 96.3561 129.288 95.8228 129.608C95.2894 129.949 94.6921 130.12 94.0308 130.12H89.5828C89.1774 130.12 88.8254 129.971 88.5268 129.672C88.2494 129.395 88.1108 129.053 88.1108 128.648V127.752C88.1108 127.347 88.2494 127.005 88.5268 126.728C88.8254 126.451 89.1774 126.312 89.5828 126.312H93.3588C93.4654 126.312 93.5614 126.269 93.6468 126.184C93.7534 126.099 93.8068 126.003 93.8068 125.896V125.416C93.8068 125.309 93.7534 125.213 93.6468 125.128C93.5614 125.043 93.4654 125 93.3588 125H89.5828C88.6014 125 87.7588 124.659 87.0548 123.976C86.3508 123.272 85.9988 122.419 85.9988 121.416V112.008C85.9988 111.347 86.1588 110.749 86.4788 110.216C86.8201 109.661 87.2574 109.224 87.7908 108.904C88.3241 108.584 88.9214 108.424 89.5828 108.424H94.0308C94.6921 108.424 95.2894 108.584 95.8228 108.904C96.3561 109.224 96.7828 109.661 97.1028 110.216C97.4228 110.749 97.5828 111.347 97.5828 112.008V126.536ZM93.8068 120.808V112.68C93.8068 112.552 93.7534 112.445 93.6468 112.36C93.5614 112.275 93.4654 112.232 93.3588 112.232H90.2548C90.1481 112.232 90.0414 112.275 89.9348 112.36C89.8494 112.445 89.8068 112.552 89.8068 112.68V120.808C89.8068 120.915 89.8494 121.011 89.9348 121.096C90.0414 121.181 90.1481 121.224 90.2548 121.224H93.3588C93.4654 121.224 93.5614 121.181 93.6468 121.096C93.7534 121.011 93.8068 120.915 93.8068 120.808ZM105.018 105.416C105.018 106.077 104.773 106.653 104.282 107.144C103.813 107.613 103.258 107.848 102.618 107.848C101.957 107.848 101.381 107.613 100.89 107.144C100.421 106.653 100.186 106.077 100.186 105.416C100.186 104.776 100.421 104.221 100.89 103.752C101.381 103.261 101.957 103.016 102.618 103.016C103.258 103.016 103.813 103.261 104.282 103.752C104.773 104.221 105.018 104.776 105.018 105.416ZM104.506 123.528C104.506 123.933 104.357 124.285 104.058 124.584C103.781 124.861 103.44 125 103.034 125H102.17C101.765 125 101.413 124.861 101.114 124.584C100.837 124.285 100.698 123.933 100.698 123.528V110.248C100.698 109.843 100.837 109.501 101.114 109.224C101.413 108.925 101.765 108.776 102.17 108.776H103.034C103.44 108.776 103.781 108.925 104.058 109.224C104.357 109.501 104.506 109.843 104.506 110.248V123.528ZM119.177 123.528C119.177 123.933 119.038 124.285 118.761 124.584C118.483 124.861 118.142 125 117.737 125H116.841C116.435 125 116.094 124.861 115.817 124.584C115.539 124.285 115.401 123.933 115.401 123.528V112.68C115.401 112.552 115.347 112.445 115.241 112.36C115.155 112.275 115.059 112.232 114.953 112.232H111.849C111.742 112.232 111.635 112.275 111.529 112.36C111.443 112.445 111.401 112.552 111.401 112.68V123.528C111.401 123.933 111.262 124.285 110.985 124.584C110.707 124.861 110.366 125 109.961 125H109.065C108.659 125 108.307 124.861 108.009 124.584C107.731 124.285 107.593 123.933 107.593 123.528V112.008C107.593 111.347 107.753 110.749 108.073 110.216C108.414 109.661 108.851 109.224 109.385 108.904C109.918 108.584 110.515 108.424 111.177 108.424H115.625C116.286 108.424 116.883 108.584 117.417 108.904C117.95 109.224 118.377 109.661 118.697 110.216C119.017 110.749 119.177 111.347 119.177 112.008V123.528ZM133.364 121.416C133.364 122.419 133.012 123.272 132.308 123.976C131.625 124.659 130.793 125 129.812 125H125.364C124.383 125 123.54 124.659 122.836 123.976C122.132 123.272 121.78 122.419 121.78 121.416V117.928C121.78 117.267 121.94 116.68 122.26 116.168C122.601 115.635 123.039 115.208 123.572 114.888C124.105 114.568 124.703 114.408 125.364 114.408H129.14C129.247 114.408 129.343 114.365 129.428 114.28C129.535 114.195 129.588 114.088 129.588 113.96V112.68C129.588 112.552 129.535 112.445 129.428 112.36C129.343 112.275 129.247 112.232 129.14 112.232H125.364C124.959 112.232 124.607 112.093 124.308 111.816C124.031 111.539 123.892 111.197 123.892 110.792V109.928C123.892 109.501 124.031 109.149 124.308 108.872C124.607 108.573 124.959 108.424 125.364 108.424H129.812C130.473 108.424 131.071 108.584 131.604 108.904C132.137 109.224 132.564 109.661 132.884 110.216C133.204 110.749 133.364 111.347 133.364 112.008V121.416ZM129.588 120.808V118.6C129.588 118.493 129.535 118.397 129.428 118.312C129.343 118.227 129.247 118.184 129.14 118.184H126.036C125.929 118.184 125.823 118.227 125.716 118.312C125.631 118.397 125.588 118.493 125.588 118.6V120.808C125.588 120.915 125.631 121.011 125.716 121.096C125.823 121.181 125.929 121.224 126.036 121.224H129.14C129.247 121.224 129.343 121.181 129.428 121.096C129.535 121.011 129.588 120.915 129.588 120.808ZM141.792 123.528C141.792 123.933 141.642 124.285 141.344 124.584C141.066 124.861 140.725 125 140.32 125H139.52C138.538 125 137.696 124.659 136.992 123.976C136.288 123.272 135.936 122.419 135.936 121.416V104.84C135.936 104.413 136.074 104.061 136.352 103.784C136.65 103.507 137.002 103.368 137.408 103.368H138.304C138.709 103.368 139.05 103.507 139.328 103.784C139.626 104.061 139.776 104.413 139.776 104.84V120.808C139.776 121.085 139.904 121.224 140.16 121.224H140.32C140.725 121.224 141.066 121.363 141.344 121.64C141.642 121.917 141.792 122.269 141.792 122.696V123.528ZM70.52 166.776C70.52 167.544 70.328 168.248 69.944 168.888C69.56 169.528 69.048 170.04 68.408 170.424C67.768 170.808 67.064 171 66.296 171H57.752C57.3467 171 56.9947 170.861 56.696 170.584C56.4187 170.285 56.28 169.933 56.28 169.528V150.84C56.28 150.413 56.4187 150.061 56.696 149.784C56.9947 149.507 57.3467 149.368 57.752 149.368H66.296C67.064 149.368 67.768 149.56 68.408 149.944C69.048 150.328 69.56 150.84 69.944 151.48C70.328 152.12 70.52 152.835 70.52 153.624V166.776ZM66.712 166.776V153.624C66.712 153.325 66.5733 153.176 66.296 153.176H60.536C60.2587 153.176 60.12 153.315 60.12 153.592V166.808C60.12 167.085 60.2587 167.224 60.536 167.224H66.296C66.4027 167.224 66.4987 167.181 66.584 167.096C66.6693 166.989 66.712 166.883 66.712 166.776ZM84.7078 161.496C84.7078 162.136 84.5478 162.733 84.2278 163.288C83.9078 163.821 83.4811 164.259 82.9478 164.6C82.4144 164.92 81.8171 165.08 81.1558 165.08H77.3798C77.2731 165.08 77.1664 165.123 77.0598 165.208C76.9744 165.272 76.9318 165.357 76.9318 165.464V166.808C76.9318 166.915 76.9744 167.011 77.0598 167.096C77.1664 167.181 77.2731 167.224 77.3798 167.224H81.1558C81.5611 167.224 81.9024 167.363 82.1798 167.64C82.4784 167.917 82.6278 168.269 82.6278 168.696V169.528C82.6278 169.933 82.4784 170.285 82.1798 170.584C81.9024 170.861 81.5611 171 81.1558 171H76.7078C75.7264 171 74.8838 170.659 74.1798 169.976C73.4758 169.272 73.1238 168.419 73.1238 167.416V158.008C73.1238 157.347 73.2838 156.749 73.6038 156.216C73.9451 155.683 74.3824 155.256 74.9158 154.936C75.4491 154.595 76.0464 154.424 76.7078 154.424H81.1558C81.8171 154.424 82.4144 154.595 82.9478 154.936C83.4811 155.256 83.9078 155.683 84.2278 156.216C84.5478 156.749 84.7078 157.347 84.7078 158.008V161.496ZM80.9318 160.856V158.68C80.9318 158.552 80.8784 158.445 80.7718 158.36C80.6864 158.275 80.5904 158.232 80.4838 158.232H77.3798C77.2731 158.232 77.1664 158.275 77.0598 158.36C76.9744 158.445 76.9318 158.552 76.9318 158.68V160.856C76.9318 160.941 76.9744 161.027 77.0598 161.112C77.1664 161.197 77.2731 161.24 77.3798 161.24H80.4838C80.5904 161.24 80.6864 161.197 80.7718 161.112C80.8784 161.027 80.9318 160.941 80.9318 160.856ZM98.8953 167.416C98.8953 168.419 98.5433 169.272 97.8393 169.976C97.1566 170.659 96.3246 171 95.3433 171H90.8953C89.9139 171 89.0713 170.659 88.3673 169.976C87.6633 169.272 87.3113 168.419 87.3113 167.416V166.104C87.3113 165.699 87.4499 165.357 87.7273 165.08C88.0259 164.781 88.3779 164.632 88.7833 164.632H89.6793C90.0846 164.632 90.4259 164.781 90.7033 165.08C90.9806 165.357 91.1193 165.699 91.1193 166.104V166.808C91.1193 167.085 91.2686 167.224 91.5673 167.224H94.6713C94.7779 167.224 94.8739 167.181 94.9593 167.096C95.0659 167.011 95.1193 166.915 95.1193 166.808V165.624C95.1193 165.453 95.0339 165.336 94.8633 165.272L90.2233 163.8C89.3699 163.501 88.6659 162.989 88.1113 162.264C87.5779 161.539 87.3113 160.717 87.3113 159.8V158.008C87.3113 157.347 87.4713 156.749 87.7913 156.216C88.1326 155.683 88.5699 155.256 89.1033 154.936C89.6366 154.595 90.2339 154.424 90.8953 154.424H95.3433C96.0046 154.424 96.6019 154.595 97.1353 154.936C97.6686 155.256 98.0953 155.683 98.4153 156.216C98.7353 156.749 98.8953 157.347 98.8953 158.008V159.288C98.8953 159.693 98.7566 160.045 98.4793 160.344C98.2019 160.621 97.8606 160.76 97.4553 160.76H96.5593C96.1539 160.76 95.8126 160.621 95.5353 160.344C95.2579 160.045 95.1193 159.693 95.1193 159.288V158.68C95.1193 158.552 95.0659 158.445 94.9593 158.36C94.8739 158.275 94.7779 158.232 94.6713 158.232H91.5673C91.2686 158.232 91.1193 158.381 91.1193 158.68V159.8C91.1193 160.013 91.2046 160.141 91.3753 160.184L96.0153 161.656C96.8899 161.933 97.5833 162.435 98.0953 163.16C98.6286 163.885 98.8953 164.707 98.8953 165.624V167.416ZM106.331 151.416C106.331 152.077 106.085 152.653 105.595 153.144C105.125 153.613 104.571 153.848 103.931 153.848C103.269 153.848 102.693 153.613 102.203 153.144C101.733 152.653 101.499 152.077 101.499 151.416C101.499 150.776 101.733 150.221 102.203 149.752C102.693 149.261 103.269 149.016 103.931 149.016C104.571 149.016 105.125 149.261 105.595 149.752C106.085 150.221 106.331 150.776 106.331 151.416ZM105.819 169.528C105.819 169.933 105.669 170.285 105.371 170.584C105.093 170.861 104.752 171 104.347 171H103.483C103.077 171 102.725 170.861 102.427 170.584C102.149 170.285 102.011 169.933 102.011 169.528V156.248C102.011 155.843 102.149 155.501 102.427 155.224C102.725 154.925 103.077 154.776 103.483 154.776H104.347C104.752 154.776 105.093 154.925 105.371 155.224C105.669 155.501 105.819 155.843 105.819 156.248V169.528ZM120.489 172.536C120.489 173.176 120.329 173.763 120.009 174.296C119.689 174.851 119.262 175.288 118.729 175.608C118.196 175.949 117.598 176.12 116.937 176.12H112.489C112.084 176.12 111.732 175.971 111.433 175.672C111.156 175.395 111.017 175.053 111.017 174.648V173.752C111.017 173.347 111.156 173.005 111.433 172.728C111.732 172.451 112.084 172.312 112.489 172.312H116.265C116.372 172.312 116.468 172.269 116.553 172.184C116.66 172.099 116.713 172.003 116.713 171.896V171.416C116.713 171.309 116.66 171.213 116.553 171.128C116.468 171.043 116.372 171 116.265 171H112.489C111.508 171 110.665 170.659 109.961 169.976C109.257 169.272 108.905 168.419 108.905 167.416V158.008C108.905 157.347 109.065 156.749 109.385 156.216C109.726 155.661 110.164 155.224 110.697 154.904C111.23 154.584 111.828 154.424 112.489 154.424H116.937C117.598 154.424 118.196 154.584 118.729 154.904C119.262 155.224 119.689 155.661 120.009 156.216C120.329 156.749 120.489 157.347 120.489 158.008V172.536ZM116.713 166.808V158.68C116.713 158.552 116.66 158.445 116.553 158.36C116.468 158.275 116.372 158.232 116.265 158.232H113.161C113.054 158.232 112.948 158.275 112.841 158.36C112.756 158.445 112.713 158.552 112.713 158.68V166.808C112.713 166.915 112.756 167.011 112.841 167.096C112.948 167.181 113.054 167.224 113.161 167.224H116.265C116.372 167.224 116.468 167.181 116.553 167.096C116.66 167.011 116.713 166.915 116.713 166.808ZM134.677 169.528C134.677 169.933 134.538 170.285 134.261 170.584C133.983 170.861 133.642 171 133.237 171H132.341C131.935 171 131.594 170.861 131.317 170.584C131.039 170.285 130.901 169.933 130.901 169.528V158.68C130.901 158.552 130.847 158.445 130.741 158.36C130.655 158.275 130.559 158.232 130.453 158.232H127.349C127.242 158.232 127.135 158.275 127.029 158.36C126.943 158.445 126.901 158.552 126.901 158.68V169.528C126.901 169.933 126.762 170.285 126.485 170.584C126.207 170.861 125.866 171 125.461 171H124.565C124.159 171 123.807 170.861 123.509 170.584C123.231 170.285 123.093 169.933 123.093 169.528V158.008C123.093 157.347 123.253 156.749 123.573 156.216C123.914 155.661 124.351 155.224 124.885 154.904C125.418 154.584 126.015 154.424 126.677 154.424H131.125C131.786 154.424 132.383 154.584 132.917 154.904C133.45 155.224 133.877 155.661 134.197 156.216C134.517 156.749 134.677 157.347 134.677 158.008V169.528Z" fill="black"/>
</svg>
